<?xml version="1.0" encoding="UTF-8"?>
<svg version="1.1" xmlns="http://www.w3.org/2000/svg" width="1920" height="1080">
<path d="M0 0 C633.6 0 1267.2 0 1920 0 C1920 356.4 1920 712.8 1920 1080 C1286.4 1080 652.8 1080 0 1080 C0 723.6 0 367.2 0 0 Z " fill="#FEFEFE" transform="translate(0,0)"/>
<path d="M0 0 C0.928125 0.86625 0.928125 0.86625 1.875 1.75 C1.854375 0.780625 1.83375 -0.18875 1.8125 -1.1875 C1.875 -4.25 1.875 -4.25 2.875 -5.25 C5.06139453 -5.32258946 7.25000389 -5.33373783 9.4375 -5.3125 C11.23380859 -5.29896484 11.23380859 -5.29896484 13.06640625 -5.28515625 C13.99324219 -5.27355469 14.92007812 -5.26195312 15.875 -5.25 C15.94480573 4.2083865 15.99796544 13.666683 16.03043652 23.1252718 C16.04602854 27.51825943 16.06714725 31.91106956 16.10131836 36.30395508 C16.13414425 40.55094817 16.1519015 44.79777156 16.15963173 49.04488182 C16.16513387 50.65743871 16.17587708 52.26998732 16.19219017 53.88247108 C16.3266382 67.73513724 15.58827685 78.11385829 5.51171875 88.42578125 C-3.43646685 96.31344115 -13.62380365 96.40177265 -24.984375 95.92919922 C-32.60352458 95.29137351 -39.71980487 91.04229288 -45.125 85.75 C-45.455 84.76 -45.785 83.77 -46.125 82.75 C-44.85613036 81.62278564 -43.58482438 80.49831342 -42.3125 79.375 C-41.60480469 78.74851562 -40.89710937 78.12203125 -40.16796875 77.4765625 C-38.125 75.75 -38.125 75.75 -35.125 73.75 C-34.403125 74.36875 -33.68125 74.9875 -32.9375 75.625 C-26.21508916 80.70415485 -19.2809795 80.46411802 -11.125 79.75 C-7.69885317 78.94520041 -6.86828408 78.25473764 -4.125 75.75 C-1.34592523 70.7408035 0.27484398 65.45148216 0.875 59.75 C0.13056641 60.25660156 0.13056641 60.25660156 -0.62890625 60.7734375 C-9.48221686 66.5860475 -17.60067018 67.68283832 -28.125 66.75 C-35.36832071 65.04695733 -40.60378212 60.52218666 -45.125 54.75 C-52.26603863 42.94868058 -52.90505935 29.48827301 -50 16.125 C-47.41325318 7.4022491 -41.45540437 0.96947925 -34.125 -4.25 C-23.06261895 -9.33869528 -9.60544259 -6.91591866 0 0 Z " fill="#066DA8" transform="translate(1281.125,438.25)"/>
<path d="M0 0 C0.66 0.66 1.32 1.32 2 2 C2.99 0.02 3.98 -1.96 5 -4 C9.62 -4 14.24 -4 19 -4 C19 29.33 19 62.66 19 97 C14.62566218 96.2709437 11.64034012 95.63152126 7.6875 94 C6.82511719 93.649375 5.96273437 93.29875 5.07421875 92.9375 C3 92 3 92 2 91 C1.91224395 88.85441173 1.89304781 86.70595579 1.90234375 84.55859375 C1.90556641 83.25341797 1.90878906 81.94824219 1.91210938 80.60351562 C1.92046599 79.2148431 1.92893095 77.82617123 1.9375 76.4375 C1.94251334 75.04492344 1.94707653 73.65234519 1.95117188 72.25976562 C1.96300566 68.8398013 1.9794912 65.41992156 2 62 C1.34 62 0.68 62 0 62 C0 62.66 0 63.32 0 64 C-1.269553 64.64834654 -2.54069706 65.29357815 -3.8125 65.9375 C-4.87404297 66.47697266 -4.87404297 66.47697266 -5.95703125 67.02734375 C-12.92112441 70.34294451 -23.2230742 70.27754992 -30.6875 68.28125 C-32.63783164 67.33655811 -34.27648083 66.30883786 -36 65 C-37.546875 63.948125 -37.546875 63.948125 -39.125 62.875 C-47.18167707 55.65252927 -50.3795634 45.2039583 -51.28125 34.734375 C-51.60207187 23.45213941 -49.37554738 13.74199924 -42 5 C-30.50706556 -6.38409983 -14.12468835 -9.63046933 0 0 Z " fill="#08ABC9" transform="translate(726,593)"/>
<path d="M0 0 C47.27393617 0 47.27393617 0 57.546875 9.28515625 C63.72316462 16.57384212 65.90374602 24.30142123 65.45703125 33.734375 C64.80448362 38.39702304 63.43937301 41.99815277 61 46 C60.62617187 46.64710938 60.25234375 47.29421875 59.8671875 47.9609375 C56.96125136 52.52191011 53.87650933 54.69975975 49 57 C48.34 57 47.68 57 47 57 C47.36351562 57.66644531 47.72703125 58.33289063 48.1015625 59.01953125 C48.60429688 59.94121094 49.10703125 60.86289062 49.625 61.8125 C50.17671875 62.823125 50.7284375 63.83375 51.296875 64.875 C52.35193112 66.81088279 53.40450776 68.74812188 54.453125 70.6875 C56.62590113 74.69877901 58.81037287 78.69521587 61.12109375 82.62890625 C61.48412598 83.25047607 61.8471582 83.8720459 62.22119141 84.51245117 C62.93216289 85.72587431 63.64901178 86.9358788 64.37255859 88.1418457 C66.40100679 91.61040214 67.18672146 93.9336073 68 98 C62.06 98 56.12 98 50 98 C49.2265625 96.57429688 48.453125 95.14859375 47.65625 93.6796875 C46.60450322 91.7446087 45.55239557 89.80972602 44.5 87.875 C43.95698242 86.87629883 43.41396484 85.87759766 42.85449219 84.84863281 C39.11771072 77.99602528 35.2868086 71.21091869 31.328125 64.484375 C30 62 30 62 30 60 C25.38 60 20.76 60 16 60 C16 72.54 16 85.08 16 98 C10.72 98 5.44 98 0 98 C0 65.66 0 33.32 0 0 Z " fill="#08B6CC" transform="translate(623,406)"/>
<path d="M0 0 C6.27 0 12.54 0 19 0 C21.0139156 4.0278312 22.58274471 7.39149645 23.9453125 11.578125 C24.4705249 13.17611938 24.4705249 13.17611938 25.00634766 14.80639648 C25.56008057 16.51098022 25.56008057 16.51098022 26.125 18.25 C26.92583137 20.68400602 27.72794821 23.11758943 28.53125 25.55078125 C28.93988281 26.78908691 29.34851563 28.02739258 29.76953125 29.30322266 C33.07607795 39.23729609 36.55013658 49.11499992 40 59 C40.32774414 59.94053223 40.65548828 60.88106445 40.99316406 61.85009766 C41.9110641 64.48376469 42.83023243 67.11698466 43.75 69.75 C44.03125732 70.55622803 44.31251465 71.36245605 44.60229492 72.19311523 C45.88978975 75.87314418 47.19340951 79.54536007 48.54296875 83.203125 C48.77983398 83.84926758 49.01669922 84.49541016 49.26074219 85.16113281 C49.88577573 86.85945628 50.51870656 88.55486772 51.15234375 90.25 C52 93 52 93 52 97 C46.06 97 40.12 97 34 97 C33.195625 94.64875 32.39125 92.2975 31.5625 89.875 C31.31056885 89.14651855 31.0586377 88.41803711 30.79907227 87.66748047 C30.59854248 87.07338379 30.3980127 86.47928711 30.19140625 85.8671875 C29.98717041 85.27019043 29.78293457 84.67319336 29.57250977 84.05810547 C28.8390804 81.42151291 28.44991107 78.69946643 28 76 C15.79 76 3.58 76 -9 76 C-9.99 79.63 -10.98 83.26 -12 87 C-12.97273195 90.34251514 -13.9863727 93.66951031 -15 97 C-20.94 97 -26.88 97 -33 97 C-31.44335007 90.3064053 -29.7560512 84.01586642 -27.1015625 77.68359375 C-24.06721969 70.29141818 -21.47926893 62.71519097 -19.1875 55.0625 C-16.43351347 45.93436722 -13.20426609 36.9665906 -10.04345703 27.97314453 C-9.02306243 25.06571227 -8.00853647 22.15630354 -6.99609375 19.24609375 C-6.37243261 17.45571635 -5.74873633 15.6653512 -5.125 13.875 C-4.83906982 13.05249756 -4.55313965 12.22999512 -4.25854492 11.38256836 C-3.99017822 10.61436768 -3.72181152 9.84616699 -3.4453125 9.0546875 C-3.21344238 8.38937012 -2.98157227 7.72405273 -2.74267578 7.03857422 C-1.88074975 4.67266943 -0.93516895 2.33792236 0 0 Z " fill="#0BC0D0" transform="translate(624,564)"/>
<path d="M0 0 C8.3373236 4.26286885 14.61197981 10.7986914 18.015625 19.5390625 C19.515625 25.9765625 19.515625 25.9765625 19.515625 41.9765625 C3.015625 41.9765625 -13.484375 41.9765625 -30.484375 41.9765625 C-26.63540024 49.86051151 -26.63540024 49.86051151 -20.484375 54.9765625 C-14.9560451 56.81933913 -9.12498678 56.98268281 -3.64453125 54.89453125 C-1.9357464 54.02382884 -0.24443095 53.11743853 1.421875 52.16796875 C3.515625 50.9765625 3.515625 50.9765625 6.515625 49.9765625 C9.155625 53.2765625 11.795625 56.5765625 14.515625 59.9765625 C11.06247166 66.88286917 6.00200457 69.85022986 -1.15625 72.24609375 C-11.22134053 74.45521573 -22.48325991 74.42818126 -31.484375 68.9765625 C-39.141735 63.91778451 -44.68906895 55.98273173 -47.01171875 47.109375 C-48.58259576 36.69744642 -49.50995116 24.08762137 -43.484375 14.9765625 C-32.52843604 0.42604238 -17.89364043 -5.25575537 0 0 Z " fill="#066FA8" transform="translate(1277.484375,589.0234375)"/>
<path d="M0 0 C6.49083636 5.28249285 9.8783361 11.45141456 12.49609375 19.3046875 C12.49609375 24.9146875 12.49609375 30.5246875 12.49609375 36.3046875 C-4.00390625 36.3046875 -20.50390625 36.3046875 -37.50390625 36.3046875 C-33.46153999 46.60704243 -33.46153999 46.60704243 -25.765625 51.8125 C-18.57582828 53.37711898 -13.38908204 53.2369267 -7.06640625 49.2421875 C-6.28394531 48.67371094 -5.50148438 48.10523438 -4.6953125 47.51953125 C-2.50390625 46.3046875 -2.50390625 46.3046875 -0.42578125 46.4140625 C1.89000717 47.48723274 3.14328146 48.68740874 4.80859375 50.6171875 C5.34097656 51.21144531 5.87335937 51.80570312 6.421875 52.41796875 C7.49609375 54.3046875 7.49609375 54.3046875 7.34765625 56.34375 C5.4652391 60.67849041 1.55157921 63.25349817 -2.55859375 65.35546875 C-12.5315147 68.99610252 -25.52387512 69.26756036 -35.19140625 64.8046875 C-45.03454269 58.99138285 -49.24374386 51.08517466 -52.75390625 40.5546875 C-55.13614252 29.63971405 -53.81072316 18.66475213 -48.1484375 8.98828125 C-36.84826293 -6.97738095 -16.71035663 -11.31403241 0 0 Z " fill="#0788B7" transform="translate(983.50390625,437.6953125)"/>
<path d="M0 0 C5.05896689 4.16418363 9.91541797 8.86275994 11.10360718 15.56765747 C11.26175286 17.98451847 11.30238647 20.3748693 11.296875 22.796875 C11.31103958 23.68600082 11.32520416 24.57512665 11.33979797 25.49119568 C11.38147468 28.32107637 11.39686466 31.15032577 11.41015625 33.98046875 C11.44899653 37.69019715 11.49793865 41.39976803 11.546875 45.109375 C11.55661346 45.99952301 11.56635193 46.88967102 11.5763855 47.80679321 C11.67120085 55.04761258 12.10991478 62.19957529 12.72265625 69.41796875 C8.10265625 69.41796875 3.48265625 69.41796875 -1.27734375 69.41796875 C-1.93734375 68.09796875 -2.59734375 66.77796875 -3.27734375 65.41796875 C-5.96664485 66.44623093 -8.41167164 67.49756303 -10.89453125 68.96875 C-15.1807685 70.80500175 -18.67188793 70.86136661 -23.27734375 70.79296875 C-24.44910156 70.81037109 -24.44910156 70.81037109 -25.64453125 70.828125 C-31.60103886 70.79804163 -35.79704927 69.68052745 -40.32421875 65.55078125 C-45.54833633 59.39207383 -47.80103972 55.17330668 -47.58203125 46.97265625 C-46.73567468 39.87628191 -42.83234217 35.30229831 -37.42578125 30.890625 C-30.01923007 25.81377082 -21.63474368 25.25282752 -12.90234375 25.35546875 C-12.16628906 25.35998047 -11.43023438 25.36449219 -10.671875 25.36914062 C-8.87366217 25.38081733 -7.07549178 25.39874864 -5.27734375 25.41796875 C-5.96523872 21.92608285 -6.80272246 18.66527309 -8.27734375 15.41796875 C-12.26500634 12.75952702 -16.26349758 11.77266564 -21.08984375 11.9140625 C-24.88087974 12.78735472 -27.88987497 14.94326464 -31.078125 17.10546875 C-33.27734375 18.41796875 -33.27734375 18.41796875 -36.27734375 18.41796875 C-38.13671875 16.84375 -38.13671875 16.84375 -40.02734375 14.73046875 C-40.6615625 14.04597656 -41.29578125 13.36148438 -41.94921875 12.65625 C-43.27734375 10.41796875 -43.27734375 10.41796875 -43.21875 7.84765625 C-42.09494552 4.94721482 -41.00330793 3.98714248 -38.46484375 2.23046875 C-37.77777344 1.74191406 -37.09070313 1.25335937 -36.3828125 0.75 C-26.68173194 -5.38741831 -9.77651745 -6.72488772 0 0 Z " fill="#0794BC" transform="translate(872.27734375,591.58203125)"/>
<path d="M0 0 C7.77783386 5.52566648 11.61944201 10.98517871 15 20 C15 25.94 15 31.88 15 38 C-1.5 38 -18 38 -35 38 C-30.29599519 48.04803523 -30.29599519 48.04803523 -22 54 C-13.54093027 55.01377301 -13.54093027 55.01377301 -5.66015625 52.625 C-3.86579919 50.99369464 -3.86579919 50.99369464 -2.4296875 49.21484375 C-1 48 -1 48 0.94140625 48.109375 C3.39429575 49.17058716 4.90818029 50.44025304 6.8125 52.3125 C7.43769531 52.90675781 8.06289063 53.50101562 8.70703125 54.11328125 C10 56 10 56 9.953125 58.0390625 C8.7077343 60.60130074 7.32666961 61.52572709 4.9375 63.0625 C3.83728516 63.79146484 3.83728516 63.79146484 2.71484375 64.53515625 C-3.77575174 68.03727612 -9.49392921 69.56011803 -16.875 69.5 C-18.05582153 69.49468262 -18.05582153 69.49468262 -19.26049805 69.48925781 C-25.78717907 69.30356933 -30.62190922 67.7988978 -36 64 C-36.9075 63.4225 -37.815 62.845 -38.75 62.25 C-46.96395715 54.03604285 -51.09512938 43.3935582 -51.4375 31.8125 C-51.01250985 21.37967732 -47.3968272 11.40699072 -39.92578125 3.921875 C-28.40387234 -5.64955369 -13.33540729 -7.10390856 0 0 Z " fill="#07A8C6" transform="translate(743,436)"/>
<path d="M0 0 C5.61 0 11.22 0 17 0 C17.01981934 1.32652588 17.03963867 2.65305176 17.06005859 4.01977539 C17.1363656 8.96055472 17.22504403 13.90104917 17.31738281 18.84155273 C17.35556906 20.97626097 17.39043968 23.11103129 17.421875 25.24584961 C17.46775077 28.32167686 17.52570794 31.3970806 17.5859375 34.47265625 C17.59748871 35.42084732 17.60903992 36.36903839 17.62094116 37.34596252 C17.75800717 43.55717853 18.12588801 49.0763853 21.5625 54.4375 C25.27077785 56.81460119 28.71718092 56.6435721 33 56 C36.85443873 54.24036493 40.04907241 51.9560323 41.93122864 48.08448792 C43.85491531 42.35687265 44.46646548 37.17466588 44.51171875 31.15234375 C44.52966995 30.25504044 44.54762115 29.35773712 44.56611633 28.4332428 C44.6197733 25.60137463 44.65397034 22.76967058 44.6875 19.9375 C44.72071257 18.00323258 44.7552058 16.0689867 44.79101562 14.13476562 C44.87547347 9.42329643 44.94249553 4.71187211 45 0 C50.61 0 56.22 0 62 0 C62.33 23.76 62.66 47.52 63 72 C57.72 72 52.44 72 47 72 C46.34 70.35 45.68 68.7 45 67 C44.46890625 67.34933594 43.9378125 67.69867187 43.390625 68.05859375 C42.68421875 68.51363281 41.9778125 68.96867188 41.25 69.4375 C40.55390625 69.88996094 39.8578125 70.34242188 39.140625 70.80859375 C32.53920921 74.4827394 22.64264637 74.18021332 15.44921875 72.3515625 C8.20482325 69.05993425 3.88449654 62.76649217 0.82043457 55.6411438 C-0.72281876 50.67310113 -0.48630319 45.68479481 -0.390625 40.52734375 C-0.38496521 39.3636879 -0.37930542 38.20003204 -0.37347412 37.00111389 C-0.35122266 33.31281034 -0.30104507 29.62550609 -0.25 25.9375 C-0.22992059 23.42514431 -0.21167235 20.91277328 -0.1953125 18.40039062 C-0.15139433 12.26654661 -0.082443 6.13344228 0 0 Z " fill="#089EC2" transform="translate(755,589)"/>
<path d="M0 0 C5.61 0 11.22 0 17 0 C17.01458252 1.4226416 17.02916504 2.8452832 17.04418945 4.31103516 C17.10225816 9.6003505 17.17949126 14.88924397 17.26245117 20.17822266 C17.29566006 22.46526226 17.32370451 24.75238303 17.34643555 27.03955078 C17.3800551 30.33140578 17.43237624 33.62251972 17.48828125 36.9140625 C17.49467117 37.93303619 17.5010611 38.95200989 17.50764465 40.00186157 C17.64034223 46.44122161 18.24028399 51.24028399 23 56 C27.78872816 56.74070256 31.91904208 56.460408 36.375 54.5625 C43.40801113 47.69694152 44.12293169 38.5230137 44.31640625 29.19921875 C44.33718735 28.36284378 44.35796844 27.52646881 44.37937927 26.66474915 C44.44451034 24.00574579 44.5035895 21.34664772 44.5625 18.6875 C44.60571992 16.87954769 44.6493353 15.07160478 44.69335938 13.26367188 C44.80089485 8.84254337 44.90023865 4.42133806 45 0 C50.61 0 56.22 0 62 0 C62.33 23.76 62.66 47.52 63 72 C57.72 72 52.44 72 47 72 C46.67 70.02 46.34 68.04 46 66 C45.34 66 44.68 66 44 66 C44 66.66 44 67.32 44 68 C36.10480381 74.2981622 27.58845454 73.99840489 18 73 C11.72249064 71.43522494 7.39336274 67.39979368 4 62 C0.48849261 53.95052709 -0.56490267 46.60025806 -0.390625 37.890625 C-0.38496521 36.79780212 -0.37930542 35.70497925 -0.37347412 34.57904053 C-0.35132893 31.13555507 -0.30117433 27.6931636 -0.25 24.25 C-0.22990675 21.89584851 -0.21166098 19.54168048 -0.1953125 17.1875 C-0.15153594 11.45792065 -0.08266247 5.72914489 0 0 Z " fill="#0884B3" transform="translate(960,589)"/>
<path d="M0 0 C5.61 0 11.22 0 17 0 C17.01401855 2.0728125 17.01401855 2.0728125 17.02832031 4.1875 C17.0683434 9.33902629 17.13413701 14.48996312 17.20751953 19.64111328 C17.23565772 21.86597086 17.25690765 24.09092707 17.27099609 26.31591797 C17.29252432 29.52362303 17.33922678 32.73015103 17.390625 35.9375 C17.39185364 36.92427734 17.39308228 37.91105469 17.39434814 38.92773438 C17.52868599 45.33423642 18.60992301 49.52384382 22 55 C25.69739105 56.84869552 29.9560866 56.33220142 34 56 C37.96451616 54.62103786 39.34364525 52.70786531 41.25 49.125 C44.06776753 43.23540394 44.1756926 37.42377384 44.28125 31.015625 C44.29965942 30.15942566 44.31806885 29.30322632 44.33703613 28.42108154 C44.4155403 24.76863777 44.48376303 21.11602238 44.55224609 17.46337891 C44.60380497 14.7931968 44.66108249 12.12318101 44.71875 9.453125 C44.73232544 8.62089417 44.74590088 7.78866333 44.7598877 6.93121338 C44.88710253 1.11289747 44.88710253 1.11289747 46 0 C51.28 0 56.56 0 62 0 C62.33 23.76 62.66 47.52 63 72 C58.05 72 53.1 72 48 72 C47.67 70.02 47.34 68.04 47 66 C46.39671875 66.42152344 45.7934375 66.84304688 45.171875 67.27734375 C43.97304687 68.09912109 43.97304687 68.09912109 42.75 68.9375 C41.96109375 69.48277344 41.1721875 70.02804687 40.359375 70.58984375 C33.63530829 74.60869819 22.84211895 74.13464578 15.3828125 72.38671875 C9.35874975 69.72628637 5.47843213 64.56902757 3 58.5859375 C2.26075587 56.40374571 1.60903077 54.2214288 1 52 C0.505 50.515 0.505 50.515 0 49 C-0.08722452 47.38904142 -0.11767272 45.77468984 -0.11352539 44.16137695 C-0.11344986 43.1805867 -0.11337433 42.19979645 -0.11329651 41.18928528 C-0.10813522 40.13295395 -0.10297394 39.07662262 -0.09765625 37.98828125 C-0.0962413 36.90491989 -0.09482635 35.82155853 -0.09336853 34.70536804 C-0.08776559 31.24105075 -0.07521258 27.7767978 -0.0625 24.3125 C-0.05748538 21.96549572 -0.05292241 19.61849044 -0.04882812 17.27148438 C-0.0377952 11.51429808 -0.02052858 5.75715995 0 0 Z " fill="#0875AB" transform="translate(1109,589)"/>
<path d="M0 0 C6.33187915 3.33862719 9.84563069 6.59653951 12.61706543 13.11154175 C14.17517846 18.24101631 13.92301897 23.40639518 13.828125 28.72265625 C13.82246521 29.93070419 13.81680542 31.13875214 13.81097412 32.38340759 C13.78871353 36.21435386 13.73853374 40.04433986 13.6875 43.875 C13.66742179 46.48371038 13.64917334 49.09243553 13.6328125 51.70117188 C13.58888213 58.07198049 13.51992397 64.44207784 13.4375 70.8125 C8.4875 70.8125 3.5375 70.8125 -1.5625 70.8125 C-1.592229 68.62524292 -1.592229 68.62524292 -1.62255859 66.39379883 C-1.69867587 60.97972451 -1.78738429 55.5659168 -1.87988281 50.15209961 C-1.91814716 47.80970527 -1.95300446 45.46725267 -1.984375 43.12475586 C-2.03008025 39.756136 -2.08806661 36.38791627 -2.1484375 33.01953125 C-2.15998871 31.97352249 -2.17153992 30.92751373 -2.18344116 29.84980774 C-2.20331085 28.86916855 -2.22318054 27.88852936 -2.24365234 26.87817383 C-2.25697601 26.01879715 -2.27029968 25.15942047 -2.2840271 24.27400208 C-2.60095615 21.47257499 -3.31750196 19.33799698 -4.5625 16.8125 C-8.45216296 14.47870222 -12.10847364 14.42179593 -16.5625 14.8125 C-22.77932553 16.71560986 -25.62686208 21.29503068 -28.5625 26.8125 C-29.38346863 29.56259673 -29.70438602 32.07478316 -29.76782227 34.93847656 C-29.78776749 35.73900452 -29.80771271 36.53953247 -29.82826233 37.36431885 C-29.85333107 38.64577789 -29.85333107 38.64577789 -29.87890625 39.953125 C-29.89968735 40.83530701 -29.92046844 41.71748901 -29.94187927 42.62640381 C-30.00714867 45.43835831 -30.06615447 48.25040445 -30.125 51.0625 C-30.16820673 52.97136356 -30.21182171 54.88021793 -30.25585938 56.7890625 C-30.36280687 61.46344826 -30.46413785 66.13792602 -30.5625 70.8125 C-35.8425 70.8125 -41.1225 70.8125 -46.5625 70.8125 C-46.5625 47.3825 -46.5625 23.9525 -46.5625 -0.1875 C-42.2725 -0.1875 -37.9825 -0.1875 -33.5625 -0.1875 C-31.5625 2.8125 -31.5625 2.8125 -31.5625 5.8125 C-30.94761719 5.39097656 -30.33273437 4.96945312 -29.69921875 4.53515625 C-28.89097656 3.98730469 -28.08273437 3.43945312 -27.25 2.875 C-26.44949219 2.32972656 -25.64898438 1.78445313 -24.82421875 1.22265625 C-18.31358436 -2.8366512 -7.18026577 -2.47258179 0 0 Z " fill="#0872AA" transform="translate(1205.5625,433.1875)"/>
<path d="M0 0 C5.64754353 3.51742557 8.4168714 8.88945923 10.01953125 15.2578125 C10.41021178 19.46137546 10.36980352 23.6329802 10.3125 27.8515625 C10.30825516 29.03882935 10.30401031 30.22609619 10.29963684 31.44934082 C10.28292464 35.2190679 10.24528506 38.98824862 10.20703125 42.7578125 C10.19197483 45.32290891 10.1782881 47.88801376 10.16601562 50.453125 C10.13304535 56.72156276 10.08131362 62.98959518 10.01953125 69.2578125 C5.06953125 69.2578125 0.11953125 69.2578125 -4.98046875 69.2578125 C-5.01019775 67.07055542 -5.01019775 67.07055542 -5.04052734 64.83911133 C-5.11664462 59.42503701 -5.20535304 54.0112293 -5.29785156 48.59741211 C-5.33611591 46.25501777 -5.37097321 43.91256517 -5.40234375 41.57006836 C-5.448049 38.2014485 -5.50603536 34.83322877 -5.56640625 31.46484375 C-5.57795746 30.41883499 -5.58950867 29.37282623 -5.60140991 28.29512024 C-5.6212796 27.31448105 -5.64114929 26.33384186 -5.66162109 25.32348633 C-5.67494476 24.46410965 -5.68826843 23.60473297 -5.70199585 22.71931458 C-6.01859147 19.92083481 -6.74402063 17.78363522 -7.98046875 15.2578125 C-12.12862582 12.61807618 -17.21982606 12.4587647 -21.98046875 13.2578125 C-27.72822933 16.72815851 -30.68000256 21.70872263 -32.51524353 28.128479 C-32.97613878 30.23799426 -33.1367958 32.13620274 -33.18579102 34.29199219 C-33.20573624 35.07249939 -33.22568146 35.85300659 -33.24623108 36.65716553 C-33.27129982 37.9058139 -33.27129982 37.9058139 -33.296875 39.1796875 C-33.3176561 40.03967346 -33.33843719 40.89965942 -33.35984802 41.78570557 C-33.42510614 44.52632848 -33.48411792 47.26704525 -33.54296875 50.0078125 C-33.58617656 51.8684992 -33.62979157 53.72917648 -33.67382812 55.58984375 C-33.78076317 60.14573773 -33.88209726 64.7017259 -33.98046875 69.2578125 C-39.26046875 69.2578125 -44.54046875 69.2578125 -49.98046875 69.2578125 C-49.98046875 45.8278125 -49.98046875 22.3978125 -49.98046875 -1.7421875 C-45.36046875 -1.7421875 -40.74046875 -1.7421875 -35.98046875 -1.7421875 C-35.65046875 0.5678125 -35.32046875 2.8778125 -34.98046875 5.2578125 C-34.32046875 5.2578125 -33.66046875 5.2578125 -32.98046875 5.2578125 C-32.71621094 4.64421875 -32.45195313 4.030625 -32.1796875 3.3984375 C-26.50330399 -6.73399951 -8.70484888 -4.12866796 0 0 Z " fill="#0998BF" transform="translate(847.98046875,434.7421875)"/>
<path d="M0 0 C6.10259861 4.09910397 9.7832429 8.24776542 11.52082825 15.48014832 C12.34183864 20.32211626 12.17892986 25.19658167 12.1328125 30.09375 C12.1299826 31.23662476 12.12715271 32.37949951 12.12423706 33.55700684 C12.11310025 37.18394732 12.08800741 40.81063496 12.0625 44.4375 C12.05246181 46.90624642 12.04333743 49.37499673 12.03515625 51.84375 C12.01318215 57.87509646 11.97869703 63.90625545 11.9375 69.9375 C6.6575 69.9375 1.3775 69.9375 -4.0625 69.9375 C-4.092229 67.69694824 -4.092229 67.69694824 -4.12255859 65.41113281 C-4.19859878 59.87222358 -4.28731898 54.33357759 -4.37988281 48.79492188 C-4.41817905 46.39718826 -4.45303076 43.99939707 -4.484375 41.6015625 C-4.53001105 38.15604058 -4.5880087 34.71091528 -4.6484375 31.265625 C-4.65998871 30.19258118 -4.67153992 29.11953735 -4.68344116 28.01397705 C-4.70331085 27.01324158 -4.72318054 26.0125061 -4.74365234 24.98144531 C-4.75697601 24.10208313 -4.77029968 23.22272095 -4.7840271 22.31671143 C-5.0844211 19.75021096 -5.70176478 18.12290371 -7.0625 15.9375 C-11.14932119 13.26732901 -15.34703027 12.96188557 -20.0625 13.9375 C-26.16757244 17.17780207 -29.06904749 22.04152701 -31.25268555 28.3996582 C-32.99440237 36.00870811 -32.75027734 43.85367896 -32.8125 51.625 C-32.84070988 53.40562734 -32.87064417 55.18622824 -32.90234375 56.96679688 C-32.97560937 61.29031643 -33.02554566 65.61352388 -33.0625 69.9375 C-38.0125 69.9375 -42.9625 69.9375 -48.0625 69.9375 C-48.0625 46.5075 -48.0625 23.0775 -48.0625 -1.0625 C-43.7725 -1.0625 -39.4825 -1.0625 -35.0625 -1.0625 C-34.0625 -0.0625 -34.0625 -0.0625 -34 3 C-34.020625 3.969375 -34.04125 4.93875 -34.0625 5.9375 C-33.55460938 5.52757812 -33.04671875 5.11765625 -32.5234375 4.6953125 C-31.49089844 3.88707031 -31.49089844 3.88707031 -30.4375 3.0625 C-29.76460937 2.52882813 -29.09171875 1.99515625 -28.3984375 1.4453125 C-20.51081627 -3.64602829 -8.3615048 -4.32295486 0 0 Z " fill="#0981B3" transform="translate(1055.0625,434.0625)"/>
<path d="M0 0 C0.88453857 0.00241699 1.76907715 0.00483398 2.68041992 0.00732422 C13.56967521 0.31321902 20.48662771 5.31668586 28.25 12.5625 C26.81759312 15.89247682 25.06763476 17.9617896 22.375 20.375 C21.69695313 21.00019531 21.01890625 21.62539063 20.3203125 22.26953125 C18.25 23.5625 18.25 23.5625 16.25390625 23.421875 C14.03005981 22.46817867 12.1008597 21.30321358 10.0625 20 C5.32912756 17.31853286 1.60858677 16.67103492 -3.75 17.5625 C-8.96213683 19.18595245 -11.79239294 20.96177791 -14.75 25.5625 C-17.905927 32.05599008 -17.65276997 39.81885418 -16.3203125 46.8203125 C-14.59961618 51.55753816 -11.22114255 55.33480046 -6.75 57.5625 C-0.08797346 58.76129873 5.72948232 58.04175831 11.62890625 54.73046875 C13.33594003 53.59614679 13.33594003 53.59614679 14.71484375 51.86328125 C16.25 50.5625 16.25 50.5625 18.203125 50.63671875 C20.78611367 51.80497889 22.14451616 53.23802182 24 55.375 C24.61359375 56.06207031 25.2271875 56.74914062 25.859375 57.45703125 C27.25 59.5625 27.25 59.5625 27.25 63.5625 C22.57060387 69.67655339 15.65717542 73.09323633 8.25 74.5625 C-0.95563246 75.53723912 -10.88688892 76.07936019 -18.75 70.5625 C-19.4925 70.07265625 -20.235 69.5828125 -21 69.078125 C-28.69017174 63.20657496 -34.40899673 53.91450585 -36.15380859 44.34863281 C-37.33648489 33.09709182 -35.17718257 22.96359517 -28.5 13.75 C-20.72829869 4.46713455 -12.05789563 -0.03421974 0 0 Z " fill="#088BB8" transform="translate(926.75,587.4375)"/>
<path d="M0 0 C0 6.27 0 12.54 0 19 C5.94 19 11.88 19 18 19 C18 24.28 18 29.56 18 35 C12.39 35 6.78 35 1 35 C1.0969024 40.21487938 1.19960977 45.42895749 1.31738281 50.64331055 C1.35567679 52.41732771 1.39052895 54.19142264 1.421875 55.96557617 C1.46751672 58.51509399 1.52551185 61.0640763 1.5859375 63.61328125 C1.59748871 64.40712723 1.60903992 65.20097321 1.62094116 66.01887512 C1.72355385 69.84323908 1.83064066 71.74596099 4 75 C5.96361864 75.57748803 5.96361864 75.57748803 8.125 75.6875 C9.40375 75.790625 10.6825 75.89375 12 76 C12 75.34 12 74.68 12 74 C12.99 74 13.98 74 15 74 C15.70304222 75.72290605 16.38683491 77.45367466 17.0625 79.1875 C17.44535156 80.15042969 17.82820313 81.11335937 18.22265625 82.10546875 C19.07532581 85.28048457 19.17962907 86.93719626 18 90 C14.55889915 92.87484375 9.95925753 92.3676158 5.6875 92.375 C4.95337891 92.39949219 4.21925781 92.42398438 3.46289062 92.44921875 C-3.14605079 92.48440389 -7.30547603 90.66286681 -11.97412109 86.04907227 C-19.17741861 76.9572936 -17.77829805 66.27407171 -17.4375 55.3125 C-17.40232993 53.33924826 -17.370401 51.36593596 -17.34179688 49.39257812 C-17.26524751 44.59353755 -17.14477936 39.79744711 -17 35 C-20.3 35 -23.6 35 -27 35 C-27 29.72 -27 24.44 -27 19 C-23.7 19 -20.4 19 -17 19 C-17 14.05 -17 9.1 -17 4 C-14.23307292 3.25130208 -11.46614583 2.50260417 -8.69921875 1.75390625 C-2.41968912 0 -2.41968912 0 0 0 Z " fill="#0B7FB1" transform="translate(1083,570)"/>
<path d="M0 0 C5.28 0 10.56 0 16 0 C17.6825558 4.99508753 19.34786067 9.99485186 21 15 C21.32661621 15.98564941 21.65323242 16.97129883 21.98974609 17.98681641 C23.06372395 21.23862419 24.12653954 24.49392395 25.1875 27.75 C25.53232422 28.79019287 25.87714844 29.83038574 26.23242188 30.90209961 C28.38344055 37.54510617 29.93977107 44.09784998 31 51 C31.66 51 32.32 51 33 51 C33.08765625 49.7521875 33.1753125 48.504375 33.265625 47.21875 C33.92132241 41.34957037 35.79370341 36.04678118 37.75 30.5 C38.47776 28.38497301 39.20300541 26.26907918 39.92578125 24.15234375 C40.27979004 23.11577637 40.63379883 22.07920898 40.99853516 21.01123047 C42.6582399 16.02078719 44.12006638 10.97717416 45.54003906 5.9140625 C46.90471217 1.09528783 46.90471217 1.09528783 48 0 C50.69654854 -0.07319621 53.36691458 -0.09242537 56.0625 -0.0625 C56.82111328 -0.05798828 57.57972656 -0.05347656 58.36132812 -0.04882812 C60.24091871 -0.0370068 62.12046899 -0.01907078 64 0 C63.32222057 3.80115473 62.2975732 7.34312846 61.0625 11 C60.75022461 11.9293335 60.75022461 11.9293335 60.43164062 12.87744141 C58.85676102 17.54025644 57.24031827 22.18836325 55.62109375 26.8359375 C54.74684352 29.34876834 53.87297195 31.86172533 53 34.375 C52.78030548 35.00712402 52.56061096 35.63924805 52.33425903 36.29052734 C49.28842386 45.07048379 46.43222249 53.86084872 43.9375 62.8125 C43 66 43 66 41 71 C35.06 71 29.12 71 23 71 C14.88707572 50.04161227 14.88707572 50.04161227 12.20703125 41.12890625 C10.68875645 36.16032648 9.09201996 31.22747436 7.421875 26.30859375 C7.20326309 25.66302521 6.98465118 25.01745667 6.75941467 24.35232544 C5.86094845 21.70192732 4.96085883 19.05213577 4.05273438 16.4050293 C3.3786695 14.4371871 2.71219561 12.46690659 2.046875 10.49609375 C1.65338867 9.34294678 1.25990234 8.1897998 0.85449219 7.00170898 C0 4 0 4 0 0 Z " fill="#088EB9" transform="translate(865,433)"/>
<path d="M0 0 C0 5.94 0 11.88 0 18 C5.94 18 11.88 18 18 18 C18 23.28 18 28.56 18 34 C12.06 34 6.12 34 0 34 C0.0969024 39.21487938 0.19960977 44.42895749 0.31738281 49.64331055 C0.35567679 51.41732771 0.39052895 53.19142264 0.421875 54.96557617 C0.46751672 57.51509399 0.52551185 60.0640763 0.5859375 62.61328125 C0.59748871 63.40712723 0.60903992 64.20097321 0.62094116 65.01887512 C0.72355385 68.84323908 0.83064066 70.74596099 3 74 C5.66653905 74.36460453 5.66653905 74.36460453 8.625 74.1875 C9.62789062 74.16042969 10.63078125 74.13335937 11.6640625 74.10546875 C12.82035156 74.05326172 12.82035156 74.05326172 14 74 C18.59225513 82.261959 18.59225513 82.261959 18 87 C11.40808913 90.76680621 4.45555044 90.87309546 -3 90 C-7.67416898 88.05058356 -10.12036565 86.17050492 -13 82 C-13.52634033 81.3294458 -14.05268066 80.6588916 -14.5949707 79.96801758 C-16.65334899 75.61984993 -16.37148769 71.63643813 -16.29296875 66.88671875 C-16.28872391 65.91716751 -16.28447906 64.94761627 -16.28010559 63.94868469 C-16.263354 60.861337 -16.22570789 57.77464938 -16.1875 54.6875 C-16.17244863 52.59050424 -16.15876102 50.49349822 -16.14648438 48.39648438 C-16.11346192 43.26406977 -16.06170347 38.13214669 -16 33 C-19.63 33 -23.26 33 -27 33 C-27 28.05 -27 23.1 -27 18 C-23.37 18 -19.74 18 -16 18 C-16 13.05 -16 8.1 -16 3 C-9.89202773 0.7447487 -6.79930281 0 0 0 Z " fill="#0D7EB1" transform="translate(1101,415)"/>
<path d="M0 0 C0 34.65 0 69.3 0 105 C-5.61 105 -11.22 105 -17 105 C-17.09256698 92.01349265 -17.16369747 79.02706342 -17.20724869 66.04029369 C-17.22814818 60.01038674 -17.25650926 53.98070503 -17.30175781 47.95092773 C-17.34513079 42.13487336 -17.3691193 36.319036 -17.37950897 30.50283241 C-17.38691569 28.28078099 -17.40137875 26.05874181 -17.42292023 23.83678246 C-17.45184012 20.73101244 -17.45596073 17.62614606 -17.45410156 14.52026367 C-17.46848267 13.59597565 -17.48286377 12.67168762 -17.49768066 11.71939087 C-17.45722692 5.49873857 -17.45722692 5.49873857 -15.1473999 2.97920227 C-9.60522222 0.45200044 -6.36211939 0 0 0 Z " fill="#0880B1" transform="translate(1051,556)"/>
<path d="M0 0 C3.05642909 1.27757849 5.50481364 2.83027273 8 5 C6.58192622 9.47238653 4.88695626 13.71146306 3 18 C2.195625 17.835 1.39125 17.67 0.5625 17.5 C-7.54818679 16.14041411 -7.54818679 16.14041411 -14.875 19 C-19.68348811 25.7884538 -20.45429864 32.10651282 -20.51171875 40.1875 C-20.52966995 41.13061035 -20.54762115 42.0737207 -20.56611633 43.04541016 C-20.61989644 46.03022921 -20.65401089 49.01489135 -20.6875 52 C-20.72070161 54.03517793 -20.75519387 56.07033525 -20.79101562 58.10546875 C-20.87560416 63.07019868 -20.94256864 68.03488468 -21 73 C-26.61 73 -32.22 73 -38 73 C-38 49.24 -38 25.48 -38 1 C-33.38 1 -28.76 1 -24 1 C-23.67 2.98 -23.34 4.96 -23 7 C-22.34 7 -21.68 7 -21 7 C-20.6596875 6.1028125 -20.6596875 6.1028125 -20.3125 5.1875 C-16.04774611 -1.92042316 -7.21812625 -0.90937024 0 0 Z " fill="#0671A9" transform="translate(1221,588)"/>
<path d="M0 0 C4.7210664 2.82026251 8.2794839 6.07068655 10.7734375 11.05859375 C11.03905182 14.30230805 11.00500475 17.55521306 11.0234375 20.80859375 C11.0440625 21.70320313 11.0646875 22.5978125 11.0859375 23.51953125 C11.12163222 29.56978644 10.54982284 34.08439978 6.23828125 38.703125 C-0.44913951 43.81703499 -5.86596926 43.88703522 -14.2265625 43.05859375 C-18.69463701 41.22025313 -21.07924075 37.22120476 -23.37988281 33.10327148 C-24.93390953 29.35039554 -24.84320991 25.63118716 -24.7890625 21.62109375 C-24.81291016 20.81349609 -24.83675781 20.00589844 -24.86132812 19.17382812 C-24.84632838 12.96893246 -23.10963685 8.88019057 -19.2265625 4.05859375 C-13.79221926 -0.98758212 -7.07862317 -2.99289155 0 0 Z " fill="#F9FBFC" transform="translate(1270.2265625,446.94140625)"/>
<path d="M0 0 C5.0753385 2.23968536 8.28778317 5.40657954 10.8125 10.34765625 C13.08593938 17.18254771 12.88355412 25.72935101 10.125 32.34765625 C7.62515559 37.17891584 4.31988815 40.34273081 -0.1875 43.34765625 C-6.06054269 44.12601131 -11.25239853 43.82465956 -16.1875 40.34765625 C-20.83471004 35.82332917 -23.84482224 31.68278745 -24.5234375 25.078125 C-24.62498529 15.86774022 -23.72983689 10.42134367 -17.6875 3.47265625 C-12.28442037 -1.11996144 -6.82520628 -2.03537402 0 0 Z " fill="#F8FCFD" transform="translate(716.1875,603.65234375)"/>
<path d="M0 0 C5.94 0 11.88 0 18 0 C18.13321068 22.69021985 17.76363559 45.32275013 17 68 C11.72 68 6.44 68 1 68 C0.23335164 59.2007868 -0.13777353 50.52873755 -0.09765625 41.69921875 C-0.0962413 40.4968306 -0.09482635 39.29444244 -0.09336853 38.05561829 C-0.08783156 34.26621874 -0.07529136 30.47688127 -0.0625 26.6875 C-0.05747684 24.09700607 -0.05291537 21.5065112 -0.04882812 18.91601562 C-0.03788288 12.61065366 -0.02066281 6.3053373 0 0 Z " fill="#096DA7" transform="translate(1307,564)"/>
<path d="M0 0 C5.28 0 10.56 0 16 0 C16 23.43 16 46.86 16 71 C10.72 71 5.44 71 0 71 C0 47.57 0 24.14 0 0 Z " fill="#0C9DC1" transform="translate(769,433)"/>
<path d="M0 0 C4.95 0 9.9 0 15 0 C15 23.43 15 46.86 15 71 C10.05 71 5.1 71 0 71 C0 47.57 0 24.14 0 0 Z " fill="#0574AB" transform="translate(1130,433)"/>
<path d="M0 0 C3.50625 -0.0825 7.0125 -0.165 10.625 -0.25 C11.71893066 -0.28641602 12.81286133 -0.32283203 13.93994141 -0.36035156 C20.00465392 -0.42933197 23.37271094 -0.00438476 28 4 C28.78375 4.66 29.5675 5.32 30.375 6 C32.99094679 10.82944022 32.84846462 15.64089442 32 21 C30.0789678 24.97114562 27.0658607 27.37933583 23 29 C20.43457031 29.22705078 20.43457031 29.22705078 17.578125 29.1953125 C16.65418945 29.19031738 15.73025391 29.18532227 14.77832031 29.18017578 C13.03180176 29.15286377 13.03180176 29.15286377 11.25 29.125 C7.5375 29.08375 3.825 29.0425 0 29 C0 19.43 0 9.86 0 0 Z " fill="#FBFDFD" transform="translate(639,422)"/>
<path d="M0 0 C2.74454337 2.74454337 3.45593803 5.94531861 4.6015625 9.5625 C4.8428891 10.30959229 5.0842157 11.05668457 5.33285522 11.82641602 C5.8416627 13.40580786 6.34749867 14.98615961 6.85058594 16.56738281 C7.62261916 18.99252121 8.40426307 21.41439719 9.1875 23.8359375 C9.68025698 25.36960881 10.17246324 26.9034572 10.6640625 28.4375 C10.89839996 29.16461182 11.13273743 29.89172363 11.37417603 30.64086914 C13 35.76764888 13 35.76764888 13 38 C4.75 38 -3.5 38 -12 38 C-10.68384454 31.41922269 -9.37443252 25.67094226 -7.0625 19.5 C-6.52675504 18.03193864 -5.99289148 16.56318928 -5.4609375 15.09375 C-5.20795898 14.39507813 -4.95498047 13.69640625 -4.69433594 12.9765625 C-3.50370083 9.58718772 -2.50714622 6.14685189 -1.54296875 2.6875 C-1 1 -1 1 0 0 Z " fill="#F2FBFB" transform="translate(633,586)"/>
<path d="M0 0 C3.93362152 2.23429702 6.30584161 4.55600252 8.75 8.375 C8.75 10.355 8.75 12.335 8.75 14.375 C-2.14 14.375 -13.03 14.375 -24.25 14.375 C-23.11984353 6.46390469 -23.11984353 6.46390469 -19.875 3 C-19.26914062 2.33226562 -18.66328125 1.66453125 -18.0390625 0.9765625 C-13.22171139 -3.33591339 -5.5345592 -2.53098438 0 0 Z " fill="#F3F9FA" transform="translate(971.25,447.625)"/>
<path d="M0 0 C3.51087856 2.10912298 6.81046973 4.28890821 8.67578125 8.01953125 C9.17078125 11.48453125 9.17078125 11.48453125 9.67578125 15.01953125 C-1.54421875 15.01953125 -12.76421875 15.01953125 -24.32421875 15.01953125 C-23.19257097 8.22964459 -23.19257097 8.22964459 -20.01171875 4.76953125 C-19.41746094 4.104375 -18.82320312 3.43921875 -18.2109375 2.75390625 C-13.14512595 -1.90286461 -6.33437204 -2.67214686 0 0 Z " fill="#F5FBFB" transform="translate(732.32421875,446.98046875)"/>
<path d="M0 0 C3.70390021 2.02666238 5.65363011 3.48044516 8 7 C8.64612544 12.70744135 7.53394089 15.53060416 4 20 C1.53942818 22.46057182 0.59278095 22.37747115 -2.8125 22.5 C-7.40949437 22.43356945 -7.40949437 22.43356945 -9.734375 20.7265625 C-13.54847481 16.12720685 -14.50099929 12.91179162 -14 7 C-10.24882221 1.17920688 -6.92075169 -0.70380526 0 0 Z " fill="#0C70A9" transform="translate(1319,640)"/>
<path d="M0 0 C4.88172652 2.2324404 7.93397662 4.81894564 10.87109375 9.31640625 C10.87109375 10.96640625 10.87109375 12.61640625 10.87109375 14.31640625 C0.31109375 14.31640625 -10.24890625 14.31640625 -21.12890625 14.31640625 C-20.00263334 6.43249586 -20.00263334 6.43249586 -16.19140625 3.44140625 C-15.48113281 2.86648438 -14.77085938 2.2915625 -14.0390625 1.69921875 C-9.69799736 -1.44339283 -5.02936899 -1.614935 0 0 Z " fill="#F1F7F9" transform="translate(1269.12890625,603.68359375)"/>
<path d="M0 0 C1.24523437 0.01804687 2.49046875 0.03609375 3.7734375 0.0546875 C5.18496094 0.08949219 5.18496094 0.08949219 6.625 0.125 C6.35487799 6.2027453 5.6419245 10.28106163 1.625 15.125 C-2.03110278 17.56240186 -4.02123816 17.45464831 -8.375 17.5 C-9.6125 17.52835938 -10.85 17.55671875 -12.125 17.5859375 C-15.375 17.125 -15.375 17.125 -17.28125 15.28515625 C-18.80746101 12.27088951 -18.91995579 10.46285419 -18.375 7.125 C-13.40272519 0.69029142 -7.8020942 -0.14720932 0 0 Z " fill="#F3FAFB" transform="translate(860.375,629.875)"/>
<path d="M0 0 C2.76686072 1.74619654 3.35040369 2.9757401 5 6 C5.71773857 10.46592888 5.32766948 12.41019494 3.125 16.375 C0.99264646 19.00908379 0.28101673 19.82382874 -2.98828125 20.2734375 C-7.16680686 20.45602853 -9.419353 20.35549816 -13.0625 18.125 C-15.79643714 13.71542397 -15.99442918 10.05501501 -15 5 C-11.50051172 -0.83248047 -6.28907958 -1.44339531 0 0 Z " fill="#0A7AAF" transform="translate(1143,401)"/>
<path d="M0 0 C3.125 1.9375 3.125 1.9375 5 5 C5.93971476 9.68164203 5.66873692 12.93002092 3.125 17 C-0.35752372 20.27766938 -3.07968504 20.47351314 -7.734375 20.3984375 C-10 20 -10 20 -13.0625 17.5625 C-15.33004238 14.2283436 -15.73750344 11.10255086 -15.46875 7.125 C-15 5 -15 5 -13.125 1.9375 C-8.71974058 -0.79376084 -5.05077166 -1.00187438 0 0 Z " fill="#09A0C4" transform="translate(782,401)"/>
<path d="M0 0 C0.33 0 0.66 0 1 0 C1.33 1.65 1.66 3.3 2 5 C3.80597656 4.98259766 3.80597656 4.98259766 5.6484375 4.96484375 C7.22395679 4.95546566 8.79947775 4.94636548 10.375 4.9375 C11.1690625 4.92912109 11.963125 4.92074219 12.78125 4.91210938 C18.7734375 4.88671875 18.7734375 4.88671875 21 6 C21 4.02 21 2.04 21 0 C21.33 0 21.66 0 22 0 C22.45826062 5.7282577 21.55825861 8.4998494 18 13 C15.53942818 15.46057182 14.59278095 15.37747115 11.1875 15.5 C6.59050563 15.43356945 6.59050563 15.43356945 4.265625 13.7265625 C0.35726126 9.01353564 -0.11083845 5.98527623 0 0 Z " fill="#78B0CF" transform="translate(1305,647)"/>
<path d="M0 0 C0.66 0.33 1.32 0.66 2 1 C0.7934375 2.0828125 0.7934375 2.0828125 -0.4375 3.1875 C-3.02292072 6.02515689 -3.68042813 7.27166147 -4 11 C-4.33 11 -4.66 11 -5 11 C-5.3125 8.3125 -5.3125 8.3125 -5 5 C-2.5 2.125 -2.5 2.125 0 0 Z " fill="#D5EDEE" transform="translate(847,632)"/>
<path d="M0 0 C0.66 0.33 1.32 0.66 2 1 C-0.31 3.31 -2.62 5.62 -5 8 C-5.33 7.34 -5.66 6.68 -6 6 C-2.25 1.125 -2.25 1.125 0 0 Z " fill="#C6E0E8" transform="translate(1209,604)"/>
<path d="M0 0 C0.66 0.33 1.32 0.66 2 1 C0.02 2.98 -1.96 4.96 -4 7 C-4.99 6.67 -5.98 6.34 -7 6 C-6.34 6 -5.68 6 -5 6 C-4.731875 5.38125 -4.46375 4.7625 -4.1875 4.125 C-3 2 -3 2 0 0 Z " fill="#2EA6C6" transform="translate(820,434)"/>
</svg>
