<?xml version="1.0" encoding="UTF-8"?>
<svg version="1.1" xmlns="http://www.w3.org/2000/svg" viewBox="440 410 1050 300">
<path d="M0 0 C13.32678597 -0.51426407 23.97649133 3.1997692 34.60546875 11.17578125 C35.25128906 11.65273438 35.89710938 12.1296875 36.5625 12.62109375 C43.63745195 18.72184238 49.53999978 30.07848024 50.60546875 39.36328125 C50.6403337 40.96706899 50.63835484 42.57195171 50.60546875 44.17578125 C50.65767578 45.68011719 50.65767578 45.68011719 50.7109375 47.21484375 C51.10869902 63.08742233 48.32896441 77.22612043 37.0625 89.07421875 C24.36603327 99.93383576 9.98568822 103.38788382 -6.39453125 102.17578125 C-12.1715534 101.2402311 -16.71169853 99.1010968 -21.68359375 96.05859375 C-22.56998535 95.5186377 -23.45637695 94.97868164 -24.36962891 94.42236328 C-25.03784668 94.01099121 -25.70606445 93.59961914 -26.39453125 93.17578125 C-26.38292969 94.25996338 -26.37132812 95.34414551 -26.359375 96.46118164 C-26.32668984 100.50781454 -26.34678495 104.55280397 -26.38232422 108.59936523 C-26.39040423 110.34610229 -26.38442423 112.09296599 -26.36376953 113.83959961 C-26.20721143 128.28826484 -26.20721143 128.28826484 -29.07739258 132.85107422 C-33.30660254 136.66810073 -38.72229002 139.36109669 -44.39453125 140.17578125 C-46.06665457 139.87099856 -47.73447359 139.54060648 -49.39453125 139.17578125 C-49.48752999 126.49236698 -49.55844741 113.80903488 -49.60177994 101.12534809 C-49.62258554 95.234728 -49.65077419 89.34434253 -49.69628906 83.45385742 C-49.73999811 77.76094977 -49.76372111 72.0682667 -49.77404022 66.37520409 C-49.7813868 64.21165626 -49.79573203 62.04811963 -49.81745148 59.88466835 C-49.99019299 41.95224234 -48.3974392 27.09180018 -36.01953125 13.05078125 C-25.50318714 3.15897098 -13.86300169 0.71787696 0 0 Z " fill="#05BDD5" transform="translate(813.39453125,491.82421875)"/>
<path d="M0 0 C1.31291016 0.77923828 1.31291016 0.77923828 2.65234375 1.57421875 C15.55723326 9.89932792 23.24130083 22.03007384 26.52734375 36.96484375 C27.29853135 41.91701536 27.98365721 47.05073261 27 52 C24.5869615 54.50879288 23.16470049 54.98214771 19.67169189 55.36076355 C18.33484999 55.36942436 16.99783801 55.36156462 15.66113281 55.34057617 C14.56297997 55.34123329 14.56297997 55.34123329 13.44264221 55.34190369 C11.02919601 55.33981808 8.61644944 55.31649855 6.203125 55.29296875 C4.52732727 55.28737197 2.85152462 55.28310226 1.17572021 55.28010559 C-3.23026127 55.26866325 -7.63594504 55.23920143 -12.04180908 55.20599365 C-16.5395505 55.17527955 -21.03734013 55.16159739 -25.53515625 55.14648438 C-34.35690148 55.11433107 -43.17842596 55.06314215 -52 55 C-51.07446079 56.76527558 -50.1405337 58.52615493 -49.203125 60.28515625 C-48.68395508 61.26621338 -48.16478516 62.24727051 -47.62988281 63.25805664 C-43.89941751 69.53379897 -38.51293803 72.85162414 -31.73828125 75.30859375 C-23.44157342 77.40348289 -14.78591046 76.48451403 -7 73 C-4.60826931 71.49848217 -2.34155617 69.93129379 -0.10546875 68.20703125 C2.56316983 66.67714383 3.96583822 66.50367107 7 67 C9.38671875 68.64453125 9.38671875 68.64453125 11.6875 70.8125 C12.45449219 71.52019531 13.22148438 72.22789062 14.01171875 72.95703125 C16 75 16 75 18 78 C17.6455522 81.44416259 16.83327309 82.17448165 14.3125 84.8125 C0.58179139 95.96160844 -14.89559617 98.38862625 -32 97 C-44.99473053 94.6733748 -58.41315026 87.25204906 -66.18261719 76.33886719 C-74.97649421 62.73479156 -76.44344258 49.9011029 -75 34 C-73.94083686 29.51333037 -72.39078021 25.92365512 -70 22 C-69.31357422 20.79730469 -69.31357422 20.79730469 -68.61328125 19.5703125 C-62.96494755 10.37822971 -55.56682029 3.88456987 -46 -1 C-45.24976563 -1.41507812 -44.49953125 -1.83015625 -43.7265625 -2.2578125 C-31.00771649 -8.14388039 -11.84400436 -7.32141115 0 0 Z " fill="#049DC8" transform="translate(1163,497)"/>
<path d="M0 0 C10.03805925 7.08346068 15.95560821 16.81807426 18.8203125 28.7109375 C19.06058613 30.91302242 19.2107739 33.10975015 19.35107422 35.3203125 C19.85232529 42.76568668 20.32685376 47.68902819 26.0703125 52.91796875 C32.43190685 59.43576296 32.97458859 69.73445607 32.91796875 78.29296875 C32.91696167 79.01528687 32.91595459 79.73760498 32.91491699 80.48181152 C32.90971202 83.16236982 32.89575087 85.84290537 32.8828125 88.5234375 C32.8621875 94.5253125 32.8415625 100.5271875 32.8203125 106.7109375 C9.0603125 106.7109375 -14.6996875 106.7109375 -39.1796875 106.7109375 C-39.2828125 96.4809375 -39.3859375 86.2509375 -39.4921875 75.7109375 C-39.53770752 72.49472656 -39.58322754 69.27851563 -39.63012695 65.96484375 C-39.64473703 63.40105226 -39.65747646 60.83724914 -39.66796875 58.2734375 C-39.7063385 56.2944043 -39.7063385 56.2944043 -39.7454834 54.27539062 C-39.74900032 46.83640673 -39.36135058 41.34381787 -34.1796875 35.7109375 C-28.85152809 31.17633375 -23.88479673 31.11536449 -17.01171875 31.3203125 C-7.19924017 32.32056516 1.99053646 35.37350366 10.8203125 39.7109375 C11.37286662 30.13333273 9.72408601 20.87256024 3.421875 13.390625 C-3.14907843 6.49913725 -8.84135816 3.5761278 -18.3671875 3.1484375 C-27.26610434 3.35947901 -33.90204433 5.89688128 -40.55859375 11.83203125 C-44.78888415 16.32720171 -47.80727853 21.03229902 -50.1796875 26.7109375 C-50.5509375 27.4946875 -50.9221875 28.2784375 -51.3046875 29.0859375 C-53.71974212 36.33110135 -54.47481794 43.56831508 -54.45092773 51.16455078 C-54.45876785 52.4934584 -54.45876785 52.4934584 -54.46676636 53.84921265 C-54.47692822 55.75337094 -54.48277295 57.65755639 -54.48464775 59.56174088 C-54.48834202 62.58091185 -54.50514938 65.59976327 -54.52540588 68.61886597 C-54.58054213 77.19588272 -54.61152707 85.77294418 -54.63598633 94.35009766 C-54.65189425 99.61370241 -54.68213746 104.87707563 -54.72075081 110.14056015 C-54.73236164 112.1379233 -54.73833081 114.13532787 -54.73843193 116.13272476 C-54.73862483 118.92743292 -54.7569505 121.72150447 -54.77905273 124.51611328 C-54.77218697 125.73980621 -54.77218697 125.73980621 -54.7651825 126.98822021 C-54.84256686 133.16951813 -55.94515414 138.66016267 -59.6875 143.76953125 C-64.3013538 147.70356601 -68.14522976 148.68357034 -74.1796875 148.7109375 C-74.8046875 146.3359375 -74.8046875 146.3359375 -75.1796875 143.7109375 C-72.68050987 141.21175987 -70.38012953 140.70224886 -67.0546875 139.6875 C-64.49072225 138.35210143 -64.17557248 137.44350321 -63.1796875 134.7109375 C-62.98525424 131.85274442 -62.89936806 129.09111613 -62.90844727 126.2331543 C-62.90060715 124.9516877 -62.90060715 124.9516877 -62.89260864 123.64433289 C-62.88237184 121.78919497 -62.87658879 119.93402837 -62.87472725 118.07886314 C-62.87105578 115.12965511 -62.8543022 112.18078106 -62.83396912 109.23164368 C-62.77866939 100.84614323 -62.74805948 92.46059158 -62.72338867 84.07495117 C-62.70737753 78.94142399 -62.67700671 73.80812864 -62.63862419 68.67472267 C-62.62707925 66.73059391 -62.62104477 64.7864234 -62.62094307 62.84226036 C-62.61946884 42.13864664 -60.58050705 22.54355422 -46.18359375 6.484375 C-34.15306954 -5.30333129 -14.82699239 -8.76865142 0 0 Z " fill="#09B2DB" transform="translate(495.1796875,420.2890625)"/>
<path d="M0 0 C1.40958984 -0.00193359 1.40958984 -0.00193359 2.84765625 -0.00390625 C3.83636719 -0.00003906 4.82507813 0.00382812 5.84375 0.0078125 C7.32681641 0.00201172 7.32681641 0.00201172 8.83984375 -0.00390625 C9.77957031 -0.00261719 10.71929688 -0.00132812 11.6875 0 C12.55568359 0.00112793 13.42386719 0.00225586 14.31835938 0.00341797 C16.34375 0.1328125 16.34375 0.1328125 17.34375 1.1328125 C17.46596525 2.57465543 17.52147758 4.02224394 17.54907227 5.46899414 C17.56901749 6.3898732 17.58896271 7.31075226 17.60951233 8.25953674 C17.62622482 9.26056931 17.64293732 10.26160187 17.66015625 11.29296875 C17.68093735 12.31257187 17.70171844 13.33217499 17.72312927 14.38267517 C17.78873852 17.65348298 17.84756234 20.92437387 17.90625 24.1953125 C17.94942442 26.40690978 17.99303834 28.61849853 18.03710938 30.83007812 C18.1444314 36.26423401 18.24617623 41.69847332 18.34375 47.1328125 C19.06820312 46.65070313 19.79265625 46.16859375 20.5390625 45.671875 C21.50585938 45.04023438 22.47265625 44.40859375 23.46875 43.7578125 C24.42007813 43.13132812 25.37140625 42.50484375 26.3515625 41.859375 C32.06654288 38.56169703 37.14190815 37.79740224 43.65625 37.8828125 C44.78836914 37.89513916 44.78836914 37.89513916 45.94335938 37.90771484 C56.97060909 38.12892585 64.27374691 40.51122405 72.51171875 48.140625 C83.68384011 59.83676706 85.65582455 73.46110263 85.64453125 89.03125 C85.64881638 90.34316315 85.6531015 91.65507629 85.65751648 93.00674438 C85.66492852 95.76511719 85.66472117 98.52336181 85.65942383 101.28173828 C85.65359085 104.81590735 85.67067525 108.34955884 85.6937685 111.8836422 C85.71201296 115.26620055 85.70832223 118.64864265 85.70703125 122.03125 C85.716241 123.29995941 85.72545074 124.56866882 85.73493958 125.87582397 C85.72871078 127.04779327 85.72248199 128.21976257 85.71606445 129.42724609 C85.71669388 130.45933197 85.7173233 131.49141785 85.7179718 132.55477905 C85.34375 135.1328125 85.34375 135.1328125 84.06681824 136.96670532 C81.00175426 139.04102428 77.35132487 138.51938044 73.78125 138.4453125 C73.00072266 138.44853516 72.22019531 138.45175781 71.41601562 138.45507812 C65.61091981 138.39998231 65.61091981 138.39998231 63.34375 136.1328125 C63.0921936 133.84034729 63.0921936 133.84034729 63.08837891 130.93969727 C63.08141998 129.85419083 63.07446106 128.76868439 63.06729126 127.65028381 C63.06828827 126.47018234 63.06928528 125.29008087 63.0703125 124.07421875 C63.05000572 121.5787717 63.02915462 119.08332903 63.0078125 116.58789062 C62.98530015 112.65141117 62.96877961 108.7151051 62.96289062 104.77856445 C62.95330858 100.98096215 62.91943943 97.18414361 62.8828125 93.38671875 C62.89038071 91.64389366 62.89038071 91.64389366 62.89810181 89.86585999 C62.80072389 81.68785285 61.99142174 73.26662054 56.36978149 66.89576721 C50.61043625 61.54142278 45.74985867 59.63355991 37.90625 59.8203125 C32.34646584 60.49833496 28.63120284 62.93314053 24.59375 66.6953125 C18.5906126 74.79352937 17.76834878 84.17173929 17.83984375 93.9140625 C17.83042252 95.08996948 17.82100128 96.26587646 17.81129456 97.47741699 C17.78283868 101.19606385 17.77956142 104.91406596 17.78125 108.6328125 C17.77764506 112.38002791 17.76820037 116.126783 17.74049377 119.87390137 C17.72366542 122.1965141 17.72086063 124.51927967 17.73350525 126.84191895 C17.72662186 127.88730835 17.71973846 128.93269775 17.71264648 130.00976562 C17.71360825 130.92922974 17.71457001 131.84869385 17.71556091 132.79602051 C17.27317833 135.57634794 16.56789241 136.45992115 14.34375 138.1328125 C12.38256836 138.50512695 12.38256836 138.50512695 10.18359375 138.49609375 C9.39017578 138.49544922 8.59675781 138.49480469 7.77929688 138.49414062 C6.95494141 138.47802734 6.13058594 138.46191406 5.28125 138.4453125 C4.45302734 138.44853516 3.62480469 138.45175781 2.77148438 138.45507812 C-3.38912408 138.39993842 -3.38912408 138.39993842 -5.65625 136.1328125 C-5.90513897 133.78116512 -5.90513897 133.78116512 -5.90348816 130.77391052 C-5.90768265 129.63669556 -5.91187714 128.49948059 -5.91619873 127.32780457 C-5.91057922 126.07421646 -5.90495972 124.82062836 -5.89916992 123.52905273 C-5.90106827 122.21363495 -5.90296661 120.89821716 -5.90492249 119.54293823 C-5.90977857 115.9294224 -5.90210606 112.31602966 -5.89196944 108.70252872 C-5.88320285 104.9273433 -5.88494611 101.1521619 -5.8853302 97.37696838 C-5.88439302 91.03750542 -5.87570127 84.69809026 -5.86206055 78.35864258 C-5.84632769 71.01956747 -5.84106264 63.68054472 -5.8417961 56.34145397 C-5.84240553 49.2924231 -5.83730829 42.24340935 -5.82900429 35.19438362 C-5.82546533 32.18920826 -5.82364017 29.18403896 -5.82311058 26.17886162 C-5.82192353 21.98827494 -5.81222759 17.79775086 -5.80151367 13.60717773 C-5.80196686 12.3515654 -5.80242004 11.09595306 -5.80288696 9.80229187 C-5.79862198 8.66789673 -5.79435699 7.53350159 -5.78996277 6.36473083 C-5.78828692 5.37271384 -5.78661108 4.38069685 -5.78488445 3.35861874 C-5.5502547 -0.70126076 -3.57616959 0.0046461 0 0 Z " fill="#02ACCE" transform="translate(988.65625,453.8671875)"/>
<path d="M0 0 C1.39895508 -0.01836914 1.39895508 -0.01836914 2.82617188 -0.03710938 C4.16325195 -0.04000977 4.16325195 -0.04000977 5.52734375 -0.04296875 C6.348396 -0.04707764 7.16944824 -0.05118652 8.01538086 -0.05541992 C10.0625 0.1875 10.0625 0.1875 12.0625 2.1875 C12.27955637 4.59429241 12.37384857 6.88969803 12.38134766 9.29931641 C12.39139328 10.03112625 12.4014389 10.7629361 12.41178894 11.516922 C12.44273236 13.94096068 12.45968674 16.36488838 12.4765625 18.7890625 C12.49526521 20.46773237 12.51483794 22.14639275 12.5352478 23.82504272 C12.58666995 28.24729835 12.62624152 32.66958449 12.66339111 37.09197998 C12.70336774 41.60306407 12.75448892 46.11402013 12.8046875 50.625 C12.90156607 59.47907686 12.98593249 68.33322584 13.0625 77.1875 C14.97074005 75.13723734 16.87662417 73.08486583 18.78125 71.03125 C19.31588867 70.45729492 19.85052734 69.88333984 20.40136719 69.29199219 C23.58680669 65.85327615 26.62715064 62.34555707 29.5625 58.6875 C30.2946875 57.81480469 31.026875 56.94210937 31.78125 56.04296875 C33.47474168 53.92320434 34.9335921 51.87340205 36.40625 49.61328125 C39.87714103 44.69969423 42.88256247 40.79245865 49.04492188 39.62011719 C56.40766207 39.06350606 63.72365694 39.46808905 71.0625 40.1875 C71.65039062 42.07128906 71.65039062 42.07128906 72.0625 44.1875 C70.65625 46.046875 70.65625 46.046875 68.5625 47.9375 C65.08602346 51.11981314 62.00985072 54.49638032 58.93164062 58.05566406 C55.29263708 62.20610541 51.4634397 66.18073479 47.66796875 70.1875 C45.78964122 72.17860496 43.92268255 74.17943683 42.0625 76.1875 C41.40507813 76.89390625 40.74765625 77.6003125 40.0703125 78.328125 C39.12285156 79.37226562 39.12285156 79.37226562 38.15625 80.4375 C37.58583984 81.06140625 37.01542969 81.6853125 36.42773438 82.328125 C34.93530546 84.36073205 34.27400027 85.67341638 34.0625 88.1875 C35.82590669 90.47026619 37.54038851 92.40832333 39.5625 94.4375 C40.6843137 95.60477727 41.80541135 96.77274313 42.92578125 97.94140625 C43.47057129 98.50230957 44.01536133 99.06321289 44.57666016 99.64111328 C46.36354999 101.50081755 48.06744376 103.42067696 49.75 105.375 C52.31963074 108.34476789 54.93069555 111.27261071 57.5625 114.1875 C60.90130493 117.88971227 64.22732947 121.60047995 67.484375 125.375 C68.51597962 126.55981322 69.56757892 127.72758439 70.640625 128.875 C74.0769938 132.65122945 74.0769938 132.65122945 74 135.5 C73.0625 137.1875 73.0625 137.1875 71.0625 138.1875 C63.86341052 139.02270332 55.04305712 139.86793155 48.27734375 137.01171875 C46.19744956 135.22224099 44.67471923 133.40722213 43.0625 131.1875 C41.71048298 129.53990032 40.35611549 127.89422794 39 126.25 C38.26007813 125.31929687 37.52015625 124.38859375 36.7578125 123.4296875 C33.48372853 119.40767759 29.92832435 115.64951261 26.375 111.875 C25.7452124 111.2054126 25.1154248 110.5358252 24.46655273 109.84594727 C20.72799275 105.89364271 16.91576227 102.02789436 13.0625 98.1875 C13.04268066 99.26233643 13.02286133 100.33717285 13.00244141 101.44458008 C12.92638742 105.43114714 12.83766991 109.4173491 12.74511719 113.40356445 C12.70682655 115.12907708 12.67197379 116.85466956 12.640625 118.58032227 C12.59497596 121.06034895 12.53698219 123.53982591 12.4765625 126.01953125 C12.45923569 127.17748955 12.45923569 127.17748955 12.44155884 128.35884094 C12.33728727 132.13996674 12.2090411 133.96768835 10.0625 137.1875 C8.01538086 137.54394531 8.01538086 137.54394531 5.52734375 137.515625 C4.19026367 137.50789063 4.19026367 137.50789063 2.82617188 137.5 C1.89353516 137.479375 0.96089844 137.45875 0 137.4375 C-1.40475586 137.42976563 -1.40475586 137.42976563 -2.83789062 137.421875 C-9.78359661 137.34140339 -9.78359661 137.34140339 -10.9375 136.1875 C-11.03597473 134.44354929 -11.06382065 132.69558117 -11.06448364 130.94885254 C-11.06730347 129.81301224 -11.07012329 128.67717194 -11.07302856 127.50691223 C-11.07100433 126.24972885 -11.0689801 124.99254547 -11.06689453 123.69726562 C-11.06864685 122.38199387 -11.07039917 121.06672211 -11.07220459 119.71159363 C-11.07677865 116.09392318 -11.07498948 112.47628112 -11.0718255 108.85861015 C-11.06930176 105.08074744 -11.07163948 101.30288722 -11.07321167 97.52502441 C-11.07503332 91.17960166 -11.07262717 84.83419052 -11.06787109 78.48876953 C-11.06242848 71.14233357 -11.06419114 63.79592536 -11.0696975 56.44949007 C-11.07422875 50.15311333 -11.07487912 43.85674496 -11.07225883 37.56036711 C-11.07069612 33.7949449 -11.07050212 30.02953576 -11.07379532 26.26411438 C-11.07720802 22.06863753 -11.07248411 17.87320887 -11.06689453 13.67773438 C-11.06891876 12.42055099 -11.07094299 11.16336761 -11.07302856 9.86808777 C-11.07020874 8.73224747 -11.06738892 7.59640717 -11.06448364 6.42614746 C-11.06410662 5.43283165 -11.06372959 4.43951584 -11.06334114 3.41609955 C-10.76339719 -1.89579563 -4.10455481 0.00282488 0 0 Z " fill="#0290C4" transform="translate(1323.9375,453.8125)"/>
<path d="M0 0 C0.79792969 0.00193359 1.59585938 0.00386719 2.41796875 0.00585938 C3.24683594 0.01810547 4.07570313 0.03035156 4.9296875 0.04296875 C5.76628906 0.04361328 6.60289062 0.04425781 7.46484375 0.04492188 C13.66435587 0.09013712 13.66435587 0.09013712 14.8046875 1.23046875 C14.90204998 3.14642491 14.92984859 5.06594679 14.93066406 6.984375 C14.93637421 8.83264893 14.93637421 8.83264893 14.94219971 10.71826172 C14.94239357 11.38162537 14.94258743 12.04498901 14.94278717 12.72845459 C14.94620049 15.5189241 14.96757164 18.30916019 14.98801804 21.09954834 C15.02599987 26.29637471 15.05731557 31.49296052 15.05517578 36.68994141 C15.05438396 40.30299738 15.07795904 43.91521023 15.1170578 47.52804565 C15.12745757 48.89936522 15.12908651 50.27078286 15.12140656 51.64212036 C15.07960361 59.94221814 15.49415024 66.55867787 20.8046875 73.23046875 C26.19571901 77.93328347 31.41524204 77.77403502 38.41796875 77.55078125 C43.9926497 77.02353346 47.98641554 75.99959822 52.1171875 71.98046875 C57.04001546 63.95808244 57.25778799 57.57899395 57.28125 48.23828125 C57.29557658 46.88303083 57.31133656 45.52779487 57.32846069 44.1725769 C57.3701113 40.62535454 57.39524817 37.07822201 57.41595459 33.53082275 C57.45192874 27.8323572 57.51264154 22.13411227 57.57444382 16.43587875 C57.59356055 14.44550644 57.60475756 12.4550632 57.61587524 10.46463013 C57.62613739 9.26603363 57.63639954 8.06743713 57.64697266 6.83251953 C57.65671616 5.24203293 57.65671616 5.24203293 57.66665649 3.61941528 C57.8046875 1.23046875 57.8046875 1.23046875 58.8046875 0.23046875 C61.942922 -0.01919692 65.09518363 0.04525084 68.2421875 0.04296875 C69.12712891 0.03072266 70.01207031 0.01847656 70.92382812 0.00585938 C71.77009766 0.00392578 72.61636719 0.00199219 73.48828125 0 C74.26743896 -0.00410889 75.04659668 -0.00821777 75.84936523 -0.01245117 C77.8046875 0.23046875 77.8046875 0.23046875 79.8046875 2.23046875 C80.07884216 4.92707825 80.07884216 4.92707825 80.11108398 8.40161133 C80.12707138 9.70089066 80.14305878 11.00016998 80.15953064 12.33882141 C80.16591312 13.76754362 80.17130403 15.19627055 80.17578125 16.625 C80.18475281 18.09315582 80.19387475 19.56131073 80.20314026 21.02946472 C80.21966012 24.11724055 80.2273339 27.20490773 80.23022461 30.29272461 C80.23556521 34.21534471 80.27304896 38.13691353 80.31896877 42.05923939 C80.34901097 45.09911108 80.35595421 48.13874009 80.35695076 51.17874718 C80.3611114 52.62220686 80.37337504 54.06567015 80.39446831 55.5089817 C80.54864307 66.98723523 78.86895567 77.38588064 71.6171875 86.66796875 C61.96398792 96.4655538 48.60880295 100.29229423 35.1171875 100.66796875 C21.89024967 100.1604996 10.71274472 96.65673097 1.4296875 86.98046875 C-4.98929826 79.30362114 -7.2972722 70.58634705 -7.35644531 60.7277832 C-7.36605286 59.43326736 -7.3756604 58.13875153 -7.38555908 56.80500793 C-7.3904047 55.40125709 -7.39468411 53.99750419 -7.3984375 52.59375 C-7.40419304 51.14837137 -7.40995072 49.70299275 -7.41571045 48.25761414 C-7.42618811 45.23578538 -7.43205335 42.21398301 -7.43554688 39.19213867 C-7.44105536 35.31477817 -7.46514634 31.43776464 -7.49351883 27.5605135 C-7.51210213 24.5794521 -7.51734826 21.59847551 -7.51888275 18.61736107 C-7.52191456 17.18716705 -7.52996086 15.75697471 -7.54306793 14.32683754 C-7.5600525 12.33295216 -7.55641444 10.33892298 -7.55175781 8.3449707 C-7.55540344 7.20977493 -7.55904907 6.07457916 -7.56280518 4.90498352 C-7.44153259 4.02239365 -7.32026001 3.13980377 -7.1953125 2.23046875 C-4.11562187 0.17734167 -3.47562545 -0.01950879 0 0 Z " fill="#06CDDC" transform="translate(671.1953125,493.76953125)"/>
<path d="M0 0 C4.40252293 3.23555322 8.66179666 6.64639121 12.43359375 10.61328125 C10.85680653 14.37129079 8.51349381 16.89798982 5.68359375 19.80078125 C4.843125 20.68121094 4.00265625 21.56164062 3.13671875 22.46875 C0.07366818 24.89882914 -1.67269601 25.57634904 -5.56640625 25.61328125 C-7.40234375 24.50390625 -7.40234375 24.50390625 -8.94140625 22.86328125 C-15.33024018 16.8911104 -21.68252204 16.01771074 -30.3203125 16.27734375 C-37.68516943 17.03953111 -42.79664038 19.38507183 -47.94140625 24.73828125 C-53.37136097 31.45427788 -56.31502505 38.40062781 -55.87890625 47.109375 C-54.81956478 55.5973485 -52.03983106 62.79292762 -45.56640625 68.61328125 C-38.40825988 72.98373296 -30.88993121 75.05277511 -22.56640625 73.61328125 C-16.67209869 71.88526065 -11.36298408 69.87141398 -7.12890625 65.30078125 C-4.56640625 62.61328125 -4.56640625 62.61328125 -2.30078125 62.12109375 C1.64478135 62.83129502 3.92739638 65.13277973 6.74609375 67.80078125 C7.57077148 68.52491211 7.57077148 68.52491211 8.41210938 69.26367188 C10.78802282 71.4624986 12.30466803 73.03268286 13.015625 76.234375 C11.80503985 81.18233713 7.41013925 83.77979134 3.43359375 86.61328125 C-10.85968551 95.11288518 -25.75934688 97.89342935 -42.23046875 94.9609375 C-55.75158169 91.20148724 -66.6589399 82.9729615 -74.21484375 71.21484375 C-80.72212261 58.6892723 -82.83515225 43.37644798 -78.87890625 29.80078125 C-73.90605785 15.53837577 -65.21209871 4.51855113 -51.56640625 -2.38671875 C-36.60514522 -9.37970761 -13.81629459 -9.59763528 0 0 Z " fill="#05B3D0" transform="translate(956.56640625,498.38671875)"/>
<path d="M0 0 C3.15659951 2.47787675 5.80295109 4.62017709 8.2890625 7.796875 C8.22299272 12.69429754 5.35388151 15.36812247 2.0390625 18.609375 C1.32169922 19.36250977 1.32169922 19.36250977 0.58984375 20.13085938 C-1.65015014 22.3617476 -3.21759106 23.70373585 -6.359375 24.296875 C-9.09363357 23.71550441 -10.12747433 22.94761491 -12.0859375 20.984375 C-18.98339877 14.77665986 -24.79465872 14.17299475 -33.98046875 14.390625 C-41.37680987 15.19609042 -46.51094525 18.19350765 -51.5859375 23.546875 C-57.08481624 30.51472135 -59.42871714 36.79182459 -59.09765625 45.73046875 C-58.13972445 53.3261906 -55.84411491 59.94738589 -49.7109375 64.796875 C-49.16179687 65.23644531 -48.61265625 65.67601562 -48.046875 66.12890625 C-41.11661575 71.42582246 -34.3598208 72.87517733 -25.7109375 71.796875 C-18.46823695 69.77397609 -12.98631542 67.01722339 -8.30859375 61.0546875 C-6.7109375 59.796875 -6.7109375 59.796875 -4.38671875 59.7734375 C-0.81362417 61.14008097 1.52571867 63.37363244 4.1640625 66.046875 C4.67453125 66.52511719 5.185 67.00335937 5.7109375 67.49609375 C7.97993842 69.75896224 9.26516481 71.11007621 9.37890625 74.37890625 C5.43696747 83.12464139 -5.17821826 88.5021732 -13.7109375 91.796875 C-27.934805 96.20457047 -44.52808179 95.09625314 -57.67578125 88.25390625 C-70.09568083 80.80878126 -78.33475729 70.61639146 -82.7109375 56.796875 C-85.57408226 42.34099726 -83.7849447 27.30758912 -75.7109375 14.796875 C-57.31526094 -8.50892576 -25.86433895 -18.28475926 0 0 Z " fill="#0297C6" transform="translate(1285.7109375,500.203125)"/>
<path d="M0 0 C2.40192906 1.06752403 4.21894027 2.18245023 6.25 3.875 C11.99765352 8.31636863 17.94876849 10.48902182 25 12 C23.41983155 19.56223474 21.3868487 26.9525813 19.25 34.375 C18.7230957 36.21336426 18.7230957 36.21336426 18.18554688 38.08886719 C15.29389641 48.11517973 12.22628033 58.07674382 9 68 C-10.15761783 68.84657231 -28.00771958 62.99382434 -43 51 C-43.78262207 50.38125 -43.78262207 50.38125 -44.58105469 49.75 C-46.27205444 48.40734815 -47.95110503 47.05140533 -49.625 45.6875 C-50.15899414 45.2546167 -50.69298828 44.8217334 -51.24316406 44.37573242 C-52.5352901 43.29647968 -53.77322704 42.15299796 -55 41 C-55 40.34 -55 39.68 -55 39 C-53.54150391 37.78588867 -53.54150391 37.78588867 -51.4765625 36.41796875 C-50.7119873 35.90484131 -49.94741211 35.39171387 -49.15966797 34.86303711 C-48.32322754 34.31010986 -47.48678711 33.75718262 -46.625 33.1875 C-44.86846099 32.00718624 -43.11328415 30.82484312 -41.359375 29.640625 C-40.46283203 29.03541016 -39.56628906 28.43019531 -38.64257812 27.80664062 C-34.66730839 25.08888416 -30.76738106 22.27219218 -26.875 19.4375 C-20.03244262 14.45923448 -13.14559021 9.55001003 -6.21630859 4.69311523 C-2.96609553 2.52147807 -2.96609553 2.52147807 0 0 Z " fill="#039DD0" transform="translate(535,553)"/>
<path d="M0 0 C8.55388611 5.07265339 13.29278444 11.41222817 16.08203125 20.921875 C17.77600401 29.09093991 16.24122486 36.56541089 12.5 43.9375 C8.39871023 50.04271111 2.75314665 55.17515403 -4.31640625 57.546875 C-11.711756 58.8698356 -20.19415333 59.29398257 -26.765625 55.25 C-33.63411772 50.05222173 -38.1135391 44.34844884 -40.5 35.9375 C-41.62984742 26.28537489 -40.3958321 18.30015203 -35.8125 9.8125 C-26.79168274 -1.4025701 -13.80030338 -6.4443813 0 0 Z " fill="#FCFEFE" transform="translate(826.5,515.0625)"/>
<path d="M0 0 C23.76 0 47.52 0 72 0 C75 11 75 11 76 16 C66.50278916 23.24642677 56.77898734 30.1410974 47 37 C43.97765241 39.12285471 40.95723922 41.24843722 37.9375 43.375 C37.25985596 43.85042236 36.58221191 44.32584473 35.8840332 44.81567383 C35.23007568 45.27611084 34.57611816 45.73654785 33.90234375 46.2109375 C33.26280762 46.65920898 32.62327148 47.10748047 31.96435547 47.56933594 C30.57187409 48.58349712 29.20857609 49.63828601 27.86767578 50.71972656 C27.17013184 51.27885742 26.47258789 51.83798828 25.75390625 52.4140625 C25.12943604 52.93178223 24.50496582 53.44950195 23.86157227 53.98291016 C22 55 22 55 19.87231445 54.79174805 C15.43914143 52.91708641 13.28696623 46.99224756 11 43 C10.46890625 42.09894531 9.9378125 41.19789063 9.390625 40.26953125 C6.09082919 34.23974973 3.94167189 28.09896608 2.125 21.5 C1.90956543 20.74138672 1.69413086 19.98277344 1.47216797 19.20117188 C-0.27765564 12.38744283 0 7.499337 0 0 Z " fill="#03ADD8" transform="translate(456,533)"/>
<path d="M0 0 C2.99254517 2.14465737 5.35881747 4.77890807 7.796875 7.51171875 C8.31999268 8.09115234 8.84311035 8.67058594 9.38208008 9.26757812 C10.44809129 10.44875039 11.51214854 11.63168911 12.57421875 12.81640625 C13.98220652 14.37128333 15.41269364 15.89916545 16.859375 17.41796875 C17.66375 18.27390625 18.468125 19.12984375 19.296875 20.01171875 C20.01230469 20.76453125 20.72773437 21.51734375 21.46484375 22.29296875 C23.39472676 24.8967064 24.1488699 26.25338912 24.109375 29.51171875 C22.615442 31.7263275 21.26861583 33.38351154 19.421875 35.26171875 C18.66910278 36.04724121 18.66910278 36.04724121 17.90112305 36.84863281 C2.46219752 52.55833261 -17.82463999 62.52463354 -39.890625 63.51171875 C-37.7918522 54.60960336 -35.21919118 45.91448148 -32.453125 37.19921875 C-29.3550142 27.35999486 -26.36443301 17.52804631 -23.890625 7.51171875 C-23.05660156 7.35316406 -22.22257813 7.19460938 -21.36328125 7.03125 C-14.74546767 5.65917181 -9.39632486 4.14422326 -3.79296875 0.3046875 C-1.890625 -0.48828125 -1.890625 -0.48828125 0 0 Z " fill="#048BC7" transform="translate(588.890625,557.48828125)"/>
<path d="M0 0 C0.79075928 0.00523682 1.58151855 0.01047363 2.39624023 0.01586914 C3.67724609 0.02070313 3.67724609 0.02070313 4.98413086 0.02563477 C5.88196289 0.03401367 6.77979492 0.04239258 7.70483398 0.05102539 C8.6065332 0.05553711 9.50823242 0.06004883 10.43725586 0.06469727 C12.67234712 0.07652315 14.90730835 0.09300319 17.14233398 0.11352539 C17.29337128 6.13758998 17.40078406 12.16049641 17.47192383 18.18603516 C17.50165202 20.22529345 17.54224758 22.26442928 17.5949707 24.30322266 C18.08168454 43.64293996 15.00291012 61.22466626 5.14233398 78.11352539 C1.81996073 77.00606764 1.12522913 76.19399843 -1.04907227 73.56665039 C-3.55727288 70.60775232 -6.11786336 67.75376202 -8.82250977 64.97290039 C-9.47670898 64.29485352 -10.1309082 63.61680664 -10.80493164 62.91821289 C-12.15281318 61.52668062 -13.50719982 60.14142514 -14.86743164 58.76196289 C-15.83519531 57.75262695 -15.83519531 57.75262695 -16.82250977 56.72290039 C-17.40637451 56.12445312 -17.99023926 55.52600586 -18.59179688 54.90942383 C-19.85766602 53.11352539 -19.85766602 53.11352539 -19.85766602 49.11352539 C-18.57250977 47.16821289 -18.57250977 47.16821289 -16.79516602 44.98852539 C-7.95852923 32.88305141 -4.22917329 17.76936539 -3.10375977 3.04711914 C-2.77918804 0.49691271 -2.57882633 0.15759683 0 0 Z " fill="#068AC6" transform="translate(612.857666015625,501.886474609375)"/>
<path d="M0 0 C6.6398211 4.4265474 11.3040785 11.57625558 14 19 C17.99888436 15.22476689 20.9599254 10.95373445 24.09765625 6.4609375 C26 4 26 4 29 2 C28.67 18.17 28.34 34.34 28 51 C10 51 10 51 4 48 C-0.56457134 43.05504771 -2.38853311 39.18153007 -2.26953125 32.5390625 C-1.97953655 29.80722836 -1.31572351 27.43364 -0.5 24.8125 C1.89827626 16.79184969 1.89170552 8.14653827 0 0 Z " fill="#06A8D6" transform="translate(602,446)"/>
<path d="M0 0 C2.71962517 1.89078702 4.90567839 3.90213083 7.05078125 6.42578125 C7.79328125 7.20953125 8.53578125 7.99328125 9.30078125 8.80078125 C11.05078125 11.42578125 11.05078125 11.42578125 12.05078125 18.42578125 C-6.09921875 18.42578125 -24.24921875 18.42578125 -42.94921875 18.42578125 C-39.69893092 8.67491776 -34.46162026 2.84347019 -25.82421875 -2.51171875 C-17.29954362 -5.613374 -7.71196754 -4.48076673 0 0 Z " fill="#F8FBFC" transform="translate(1153.94921875,515.57421875)"/>
<path d="M0 0 C0.89460938 -0.00128906 1.78921875 -0.00257813 2.7109375 -0.00390625 C3.65195313 -0.00003906 4.59296875 0.00382812 5.5625 0.0078125 C6.97402344 0.00201172 6.97402344 0.00201172 8.4140625 -0.00390625 C9.75597656 -0.00197266 9.75597656 -0.00197266 11.125 0 C11.95128906 0.00112793 12.77757812 0.00225586 13.62890625 0.00341797 C15.5625 0.1328125 15.5625 0.1328125 16.5625 1.1328125 C16.65746708 3.53629536 16.68808862 5.91092232 16.67602539 8.31469727 C16.67617142 9.06586823 16.67631744 9.81703918 16.6764679 10.5909729 C16.67576863 13.08541709 16.66797564 15.57978753 16.66015625 18.07421875 C16.65829212 19.79914814 16.65686819 21.52407807 16.65586853 23.24900818 C16.65204297 27.79793753 16.64221238 32.34683517 16.63116455 36.89575195 C16.62095124 41.53401256 16.61637108 46.17227827 16.61132812 50.81054688 C16.60059014 59.91798272 16.58351327 69.02539498 16.5625 78.1328125 C16.2325 78.1328125 15.9025 78.1328125 15.5625 78.1328125 C15.2325 53.0528125 14.9025 27.9728125 14.5625 2.1328125 C8.6225 1.8028125 2.6825 1.4728125 -3.4375 1.1328125 C-3.1075 45.3528125 -2.7775 89.5728125 -2.4375 135.1328125 C8.45117523 135.52504477 8.45117523 135.52504477 14.5625 134.1328125 C14.8925 121.9228125 15.2225 109.7128125 15.5625 97.1328125 C15.8925 97.1328125 16.2225 97.1328125 16.5625 97.1328125 C16.58714775 102.66869783 16.60533496 108.2045515 16.61743164 113.74047852 C16.62247244 115.6252498 16.62930498 117.51001715 16.63793945 119.39477539 C16.65001617 122.09782886 16.65573068 124.80083081 16.66015625 127.50390625 C16.66531754 128.35182236 16.67047882 129.19973846 16.67579651 130.073349 C16.67599195 132.09352318 16.62456211 134.11359184 16.5625 136.1328125 C14.97312444 137.72218806 13.32350154 137.26262393 11.125 137.265625 C9.78308594 137.26755859 9.78308594 137.26755859 8.4140625 137.26953125 C7.47304687 137.26566406 6.53203125 137.26179687 5.5625 137.2578125 C4.62148437 137.26167969 3.68046875 137.26554688 2.7109375 137.26953125 C1.81632812 137.26824219 0.92171875 137.26695312 0 137.265625 C-0.82628906 137.26449707 -1.65257812 137.26336914 -2.50390625 137.26220703 C-4.4375 137.1328125 -4.4375 137.1328125 -5.4375 136.1328125 C-5.53597473 134.38886179 -5.56382065 132.64089367 -5.56448364 130.89416504 C-5.56730347 129.75832474 -5.57012329 128.62248444 -5.57302856 127.45222473 C-5.57100433 126.19504135 -5.5689801 124.93785797 -5.56689453 123.64257812 C-5.56864685 122.32730637 -5.57039917 121.01203461 -5.57220459 119.65690613 C-5.57677865 116.03923568 -5.57498948 112.42159362 -5.5718255 108.80392265 C-5.56930176 105.02605994 -5.57163948 101.24819972 -5.57321167 97.47033691 C-5.57503332 91.12491416 -5.57262717 84.77950302 -5.56787109 78.43408203 C-5.56242848 71.08764607 -5.56419114 63.74123786 -5.5696975 56.39480257 C-5.57422875 50.09842583 -5.57487912 43.80205746 -5.57225883 37.50567961 C-5.57069612 33.7402574 -5.57050212 29.97484826 -5.57379532 26.20942688 C-5.57720802 22.01395003 -5.57248411 17.81852137 -5.56689453 13.62304688 C-5.56891876 12.36586349 -5.57094299 11.10868011 -5.57302856 9.81340027 C-5.57020874 8.67755997 -5.56738892 7.54171967 -5.56448364 6.37145996 C-5.56410662 5.37814415 -5.56372959 4.38482834 -5.56334114 3.36141205 C-5.33850223 -0.62040104 -3.52138686 0.00480689 0 0 Z " fill="#1A7BA8" transform="translate(1318.4375,453.8671875)"/>
<path d="M0 0 C1.38376004 2.76752008 1.11198446 4.98596672 1.09765625 8.08374023 C1.09439331 9.3766951 1.09113037 10.66964996 1.08776855 12.00178528 C1.08365463 12.70061136 1.07954071 13.39943745 1.07530212 14.11944008 C1.06228216 16.34584377 1.05532987 18.57219529 1.04992676 20.79862976 C1.04162738 24.00470146 1.03092093 27.21075146 1.01831055 30.41680908 C0.98620009 38.83644163 0.97381598 47.25609258 0.96875 55.67578125 C0.96820114 56.5266758 0.96765228 57.37757034 0.96708679 58.25424957 C0.96105632 75.54815202 1.17526061 92.83439814 1.5 110.125 C1.52400879 111.40519012 1.54801758 112.68538025 1.57275391 114.00436401 C1.70611407 121.00310783 1.84747542 128.00164753 2 135 C4.62506802 135.02690844 7.24986173 135.04679404 9.875 135.0625 C10.62136719 135.07087891 11.36773438 135.07925781 12.13671875 135.08789062 C16.19845578 135.20688084 16.19845578 135.20688084 20 134 C20.00142502 133.33760315 20.00285004 132.6752063 20.00431824 131.99273682 C20.02412743 125.0482941 20.0786403 118.10471714 20.15258789 111.16064453 C20.17567026 108.57509591 20.19014047 105.98945457 20.19555664 103.40380859 C20.2049172 99.66966614 20.24606697 95.93696273 20.29296875 92.203125 C20.2890361 91.06200256 20.28510345 89.92088013 20.28105164 88.74517822 C20.4218181 80.86066861 21.78940875 73.7972715 26 67 C28.16911316 65.66876221 28.16911316 65.66876221 30 65 C29.66226563 65.56847656 29.32453125 66.13695312 28.9765625 66.72265625 C28.53054688 67.49480469 28.08453125 68.26695312 27.625 69.0625 C26.96371094 70.19365234 26.96371094 70.19365234 26.2890625 71.34765625 C22.74024735 78.64961228 22.7064853 85.38872135 22.69140625 93.390625 C22.6662679 95.8151068 22.64086959 98.23958591 22.61523438 100.6640625 C22.58638883 104.47167384 22.56235674 108.27923895 22.54370117 112.08691406 C22.52213461 115.77171484 22.48272775 119.45600076 22.44140625 123.140625 C22.44129044 124.28436584 22.44117462 125.42810669 22.4410553 126.60650635 C22.42771652 127.66480652 22.41437775 128.72310669 22.40063477 129.81347656 C22.39302879 131.21076996 22.39302879 131.21076996 22.38526917 132.6362915 C21.93013998 135.42860611 21.23707377 136.32084853 19 138 C17.03881836 138.37231445 17.03881836 138.37231445 14.83984375 138.36328125 C14.04642578 138.36263672 13.25300781 138.36199219 12.43554688 138.36132812 C11.61119141 138.34521484 10.78683594 138.32910156 9.9375 138.3125 C9.10927734 138.31572266 8.28105469 138.31894531 7.42773438 138.32226562 C1.26712592 138.26712592 1.26712592 138.26712592 -1 136 C-1.24888897 133.64835262 -1.24888897 133.64835262 -1.24723816 130.64109802 C-1.25143265 129.50388306 -1.25562714 128.36666809 -1.25994873 127.19499207 C-1.25432922 125.94140396 -1.24870972 124.68781586 -1.24291992 123.39624023 C-1.24481827 122.08082245 -1.24671661 120.76540466 -1.24867249 119.41012573 C-1.25352857 115.7966099 -1.24585606 112.18321716 -1.23571944 108.56971622 C-1.22695285 104.7945308 -1.22869611 101.0193494 -1.2290802 97.24415588 C-1.22814302 90.90469292 -1.21945127 84.56527776 -1.20581055 78.22583008 C-1.19007769 70.88675497 -1.18481264 63.54773222 -1.1855461 56.20864147 C-1.18615553 49.1596106 -1.18105829 42.11059685 -1.17275429 35.06157112 C-1.16921533 32.05639576 -1.16739017 29.05122646 -1.16686058 26.04604912 C-1.16567353 21.85546244 -1.15597759 17.66493836 -1.14526367 13.47436523 C-1.14571686 12.2187529 -1.14617004 10.96314056 -1.14663696 9.66947937 C-1.14237198 8.53508423 -1.13810699 7.40068909 -1.13371277 6.23191833 C-1.13203692 5.23990134 -1.13036108 4.24788435 -1.12863445 3.22580624 C-1 1 -1 1 0 0 Z " fill="#3192B4" transform="translate(984,454)"/>
<path d="M0 0 C2.9667491 2.52433914 4.15962184 5.23895511 5.625 8.8125 C6.26308594 10.33810547 6.26308594 10.33810547 6.9140625 11.89453125 C8.68366232 16.95507749 9.12620991 21.80410334 9.16113281 27.14135742 C9.17074036 28.33246628 9.1803479 29.52357513 9.19024658 30.7507782 C9.19449646 32.02282608 9.19874634 33.29487396 9.203125 34.60546875 C9.20882507 35.92162674 9.21452515 37.23778473 9.22039795 38.59382629 C9.23086158 41.37009057 9.23673613 44.14632624 9.24023438 46.92260742 C9.24574411 50.48036833 9.2698435 54.03775137 9.29820633 57.59539318 C9.32127942 60.99457829 9.32327657 64.39370935 9.328125 67.79296875 C9.3404718 69.07108932 9.3528186 70.3492099 9.36553955 71.6660614 C9.36253845 72.84771378 9.35953735 74.02936615 9.35644531 75.24682617 C9.36191376 76.80852791 9.36191376 76.80852791 9.36749268 78.40177917 C9 81 9 81 7.72406006 82.83686829 C4.65665661 84.90628241 1.00732932 84.38656285 -2.5625 84.3125 C-3.34302734 84.31572266 -4.12355469 84.31894531 -4.92773438 84.32226562 C-10.73283019 84.26716981 -10.73283019 84.26716981 -13 82 C-13.2515564 79.70753479 -13.2515564 79.70753479 -13.25537109 76.80688477 C-13.26233002 75.72137833 -13.26928894 74.63587189 -13.27645874 73.51747131 C-13.27546173 72.33736984 -13.27446472 71.15726837 -13.2734375 69.94140625 C-13.29374428 67.4459592 -13.31459538 64.95051653 -13.3359375 62.45507812 C-13.35844985 58.51859867 -13.37497039 54.5822926 -13.38085938 50.64575195 C-13.39044142 46.84814965 -13.42431057 43.05133111 -13.4609375 39.25390625 C-13.45589203 38.09202286 -13.45084656 36.93013947 -13.44564819 35.73304749 C-13.5428446 27.5702838 -14.3883707 19.23152096 -19.88265991 12.79420471 C-24.11194497 8.73056187 -28.43195438 6.69029956 -34 5 C-34 4.67 -34 4.34 -34 4 C-28.06666693 4.40919538 -24.61951506 5.18890008 -20 9 C-20 9.66 -20 10.32 -20 11 C-19.01 11.33 -18.02 11.66 -17 12 C-15.8671875 13.70703125 -15.8671875 13.70703125 -14.875 15.8125 C-14.54242187 16.49957031 -14.20984375 17.18664062 -13.8671875 17.89453125 C-12.23065798 21.86790698 -11.86113994 25.39496366 -11.79467773 29.68652344 C-11.77473251 30.82740417 -11.75478729 31.96828491 -11.73423767 33.14373779 C-11.71752518 34.36989807 -11.70081268 35.59605835 -11.68359375 36.859375 C-11.66281265 38.11888977 -11.64203156 39.37840454 -11.62062073 40.67608643 C-11.56633698 44.01658871 -11.51607931 47.35710222 -11.46777344 50.69769287 C-11.41744296 54.10971393 -11.3618173 57.52164823 -11.30664062 60.93359375 C-11.19954883 67.62232876 -11.09825424 74.31112957 -11 81 C-5.39 81 0.22 81 6 81 C6.07482414 73.1753136 6.12891815 65.35084099 6.16479492 57.52587891 C6.17805814 54.87042218 6.20015588 52.21546797 6.22631836 49.56005859 C6.99117239 25.06944501 6.99117239 25.06944501 0 2 C0 1.34 0 0.68 0 0 Z " fill="#2689AF" transform="translate(1065,508)"/>
<path d="M0 0 C0.33 0 0.66 0 1 0 C0.67 14.85 0.34 29.7 0 45 C-2.39648547 41.80468604 -3.88414092 39.3626982 -5.48046875 35.796875 C-5.92197266 34.8171875 -6.36347656 33.8375 -6.81835938 32.828125 C-7.27017578 31.81234375 -7.72199219 30.7965625 -8.1875 29.75 C-8.65091797 28.71875 -9.11433594 27.6875 -9.59179688 26.625 C-10.73231581 24.08528773 -11.86820243 21.54360789 -13 19 C-12.34 18.34 -11.68 17.68 -11 17 C-10.608125 15.989375 -10.21625 14.97875 -9.8125 13.9375 C-7.68884121 8.71087863 -3.98023894 3.98023894 0 0 Z " fill="#048DC9" transform="translate(630,448)"/>
<path d="M0 0 C0.33 0 0.66 0 1 0 C1 32.67 1 65.34 1 99 C4.96 98.01 4.96 98.01 9 97 C10.66394675 96.65334443 12.32943851 96.31323028 14 96 C12.66783496 98.66433008 11.52848372 98.74447159 8.75 99.6875 C7.98171875 99.95949219 7.2134375 100.23148438 6.421875 100.51171875 C3.63498119 101.0735925 1.74716018 100.62053837 -1 100 C-1.0231211 87.10927745 -1.04091389 74.2185598 -1.05181217 61.32782078 C-1.05704151 55.34280734 -1.06414008 49.35780804 -1.07543945 43.37280273 C-1.08626653 37.60216571 -1.09227645 31.83154232 -1.09487724 26.06089592 C-1.09673182 23.85397057 -1.10035304 21.647046 -1.10573006 19.44012642 C-1.1129381 16.36053959 -1.11399104 13.28100986 -1.11352539 10.20141602 C-1.11712067 9.27928818 -1.12071594 8.35716034 -1.12442017 7.40708923 C-1.11405216 1.11405216 -1.11405216 1.11405216 0 0 Z " fill="#14A4BF" transform="translate(765,531)"/>
<path d="M0 0 C0.66 0.33 1.32 0.66 2 1 C1.484375 1.4125 0.96875 1.825 0.4375 2.25 C-1.20472875 3.84872028 -1.20472875 3.84872028 -0.91015625 5.75 C0.4104862 9.01476417 2.7186347 11.2516616 5.125 13.75 C6.13609744 14.82488086 7.14651491 15.90040175 8.15625 16.9765625 C8.89294922 17.75628418 8.89294922 17.75628418 9.64453125 18.55175781 C11.3486065 20.37246646 12.99330636 22.23931631 14.625 24.125 C17.21709829 27.11397458 19.84886006 30.06321535 22.5 33 C25.83880493 36.70221227 29.16482947 40.41297995 32.421875 44.1875 C33.45347962 45.37231322 34.50507892 46.54008439 35.578125 47.6875 C39.0144938 51.46372945 39.0144938 51.46372945 38.9375 54.3125 C38 56 38 56 36 57 C28.80091052 57.83520332 19.98055712 58.68043155 13.21484375 55.82421875 C11.13159496 54.0318548 9.62042408 52.2204396 8 50 C6.43776314 48.12478075 4.87524952 46.24979204 3.3125 44.375 C2.60738281 43.47523438 1.90226562 42.57546875 1.17578125 41.6484375 C-1.00178143 38.90051088 -1.00178143 38.90051088 -3.76953125 36.2890625 C-6 34 -6 34 -6 32 C-5.34 32 -4.68 32 -4 32 C-2.60674046 33.55240341 -1.28619872 35.17029985 0 36.8125 C1.23169922 38.30330078 1.23169922 38.30330078 2.48828125 39.82421875 C4.16417807 41.88641967 5.58509016 43.90056899 7.04296875 46.14453125 C10.01157873 50.27030432 12.42677841 53.43361024 17.59326172 54.57080078 C24.05354639 55.3179963 30.51034478 55.28863725 37 55 C34.82443856 51.07975129 32.30315009 47.96347315 29.25 44.6875 C26.29477815 41.4888567 23.35087466 38.29208145 20.5 35 C17.74329651 31.82168303 14.91132286 28.72098101 12.0625 25.625 C8.01916313 21.2051081 4.24688847 16.64452313 0.59375 11.8984375 C-0.87011359 9.89932289 -0.87011359 9.89932289 -3 9 C-3.36923077 3.46153846 -3.36923077 3.46153846 -1.5 1.125 C-1.005 0.75375 -0.51 0.3825 0 0 Z " fill="#1E73A4" transform="translate(1359,535)"/>
<path d="M0 0 C3.98874822 0.55017217 5.98075809 2.48687866 8.8125 5.25 C10.02873047 6.40242187 10.02873047 6.40242187 11.26953125 7.578125 C13 10 13 10 13.03125 12.51953125 C9.74586581 20.42187579 0.41693617 25.44263775 -7.015625 28.84765625 C-20.6515088 34.11282081 -37.65772833 33.89704054 -51 28 C-60.44642362 23.08387704 -68.67215975 16.32372043 -74 7 C-74 6.34 -74 5.68 -74 5 C-70.27018765 6.24327078 -70.00859619 7.74317051 -68.19921875 11.0390625 C-62.9286471 19.65739139 -53.50267069 25.09636842 -43.984375 27.8828125 C-28.19639552 30.87999577 -11.54078219 30.15811681 2 21 C4.79543741 18.78934506 7.44034361 16.47897954 10 14 C9.72965366 11.56282742 9.72965366 11.56282742 9 9 C8.01 8.34 7.02 7.68 6 7 C6 6.34 6 5.68 6 5 C5.38125 4.731875 4.7625 4.46375 4.125 4.1875 C2 3 2 3 0 0 Z " fill="#297FAF" transform="translate(1282,562)"/>
<path d="M0 0 C2.34259302 2.34259302 3.19766781 4.48259321 4.5625 7.5 C9.70043308 17.86294978 16.1949092 24.71405584 27 29 C27 29.66 27 30.32 27 31 C43.10932328 33.7800373 61.39397954 35.56175733 76.2265625 27.17578125 C77.92818799 25.96698966 79.59802565 24.7107029 81.21484375 23.390625 C83 22 83 22 85 22 C85 22.66 85 23.32 85 24 C70.92300138 34.56411289 56.23247774 37.51413456 39 36 C24.64540749 33.44433161 13.1231953 25.30519349 4.6875 13.625 C1.82829323 9.19513565 0.82242599 5.18128373 0 0 Z " fill="#2390B5" transform="translate(879,558)"/>
<path d="M0 0 C0.99 0.495 0.99 0.495 2 1 C1.56332443 9.29683574 -4.29555806 17.08453567 -9.765625 23.05078125 C-21.06220307 32.90566316 -34.4176488 36.79302833 -49.19921875 36.28125 C-58.14080977 35.61959064 -65.8455343 32.46479401 -73 27 C-73 26.34 -73 25.68 -73 25 C-71.01653663 25.98732399 -69.03750023 26.98056668 -67.0703125 28 C-66.42835938 28.33 -65.78640625 28.66 -65.125 29 C-64.48820313 29.33 -63.85140625 29.66 -63.1953125 30 C-57.83487126 32.44176683 -53.11879913 33.33142336 -47.25 33.25 C-46.19220337 33.23984863 -46.19220337 33.23984863 -45.11303711 33.22949219 C-36.51569727 33.06020284 -29.52426171 31.57794234 -21.8125 27.8046875 C-20 27 -20 27 -18 27 C-18 26.34 -18 25.68 -18 25 C-15.36107824 23.21694476 -13.02821137 22.00940379 -10 21 C-9.32060826 19.00428677 -8.65438441 17.00405227 -8 15 C-7.01 14.34 -6.02 13.68 -5 13 C-4.27034634 10.43717258 -4.27034634 10.43717258 -4 8 C-3.34 8 -2.68 8 -2 8 C-2 6.35 -2 4.7 -2 3 C-1.34 3 -0.68 3 0 3 C0 2.01 0 1.02 0 0 Z " fill="#259CBB" transform="translate(860,558)"/>
<path d="M0 0 C0.33 0 0.66 0 1 0 C1.14695312 0.76183594 1.29390625 1.52367187 1.4453125 2.30859375 C3.47785708 11.66530758 6.73958893 19.5602171 15 25 C26.0725554 32.10314875 40.97633204 33.7855207 53.81640625 31.125 C55.40074787 30.75988424 56.98283369 30.38484052 58.5625 30 C59.38041016 29.80921875 60.19832031 29.6184375 61.04101562 29.421875 C63.02943044 28.95674873 65.01503756 28.47964573 67 28 C67 27.34 67 26.68 67 26 C71.38461538 23 71.38461538 23 74 23 C74 23.66 74 24.32 74 25 C64.46408952 33.02300161 50.3427205 35.78395648 38.15625 35.31640625 C24.82248152 33.97972896 14.38812836 29.88218268 5.6953125 19.4296875 C1.47217376 13.37717068 -0.64023433 7.36269478 0 0 Z " fill="#20ADC3" transform="translate(665,559)"/>
<path d="M0 0 C5.28550655 1.44150179 8.67102503 4.8091289 12 9 C17.15472676 18.194918 18.44121028 27.94773341 16.57421875 38.37890625 C13.8556131 46.63479458 8.47761991 52.59265839 0.8125 56.5 C-8.07423573 60.60683551 -15.35371387 60.9548478 -24.65625 57.92578125 C-27.88122474 56.65191623 -30.31188661 55.19293461 -33 53 C-33 52.34 -33 51.68 -33 51 C-34.32 50.34 -35.64 49.68 -37 49 C-36.67 47.68 -36.34 46.36 -36 45 C-35.5875 45.53109375 -35.175 46.0621875 -34.75 46.609375 C-29.76961855 52.70144874 -25.72184863 56.45842596 -17.73046875 57.375 C-8.2047851 57.70525122 -0.31982123 56.35324657 6.875 49.8125 C12.99169556 43.11875769 15.40461364 34.69201644 15.2734375 25.78515625 C14.38570412 16.7429577 10.34357644 10.25526679 4 4 C3.195625 3.175 2.39125 2.35 1.5625 1.5 C1.046875 1.005 0.53125 0.51 0 0 Z " fill="#12A0BB" transform="translate(827,515)"/>
<path d="M0 0 C0.66 0 1.32 0 2 0 C2.0698181 7.53713598 2.12297162 15.074238 2.15543652 22.61162472 C2.17102599 26.11237531 2.19213941 29.61290302 2.22631836 33.11352539 C2.26545205 37.14731871 2.27976462 41.18088156 2.29296875 45.21484375 C2.30845261 46.45894516 2.32393646 47.70304657 2.33988953 48.98484802 C2.34156575 57.71792033 1.7702751 65.82345981 -4.5 72.4375 C-5.0878125 73.07558594 -5.675625 73.71367188 -6.28125 74.37109375 C-8 76 -8 76 -11 78 C-11.66 77.34 -12.32 76.68 -13 76 C-12.46890625 75.67128906 -11.9378125 75.34257813 -11.390625 75.00390625 C-10.68421875 74.52824219 -9.9778125 74.05257812 -9.25 73.5625 C-8.55390625 73.11003906 -7.8578125 72.65757812 -7.140625 72.19140625 C-0.21542673 65.10192408 -0.39956627 56.14951858 -0.390625 46.77734375 C-0.37561587 45.42255199 -0.35888306 44.06777834 -0.34051514 42.71302795 C-0.29713466 39.1769214 -0.27690856 35.64106151 -0.26177979 32.10473633 C-0.24210178 28.48439116 -0.20014453 24.86430834 -0.16015625 21.24414062 C-0.08517286 14.16286097 -0.03468954 7.0816012 0 0 Z " fill="#24C2CF" transform="translate(729,495)"/>
<path d="M0 0 C0.66 0 1.32 0 2 0 C2.29390625 0.87398437 2.29390625 0.87398437 2.59375 1.765625 C7.83083753 16.12246839 16.32996906 26.1843028 30 33.171875 C36.12013429 35.79800169 42.48715203 35.91441605 49.0625 36.25 C50.30966797 36.32734375 51.55683594 36.4046875 52.84179688 36.484375 C55.89396777 36.67148126 58.94616004 36.84295085 62 37 C62 37.66 62 38.32 62 39 C41.90311325 39.72132395 26.59602594 36.83678401 11.40234375 22.69921875 C5.73158435 16.32768257 0.94982793 8.57447402 0 0 Z " fill="#2C84AF" transform="translate(1089,555)"/>
<path d="M0 0 C3.5625 0.3125 3.5625 0.3125 5.5 1.375 C7.1765629 4.43226176 6.92778977 6.9031288 6.5625 10.3125 C5.4375 12.25 5.4375 12.25 3.5625 13.3125 C-0.05331862 13.85102618 -1.77861489 13.73486225 -4.875 11.75 C-6.4375 9.3125 -6.4375 9.3125 -6.3125 5.6875 C-5.14951423 1.20169775 -4.66151968 0.42377452 0 0 Z " fill="#F8FCFD" transform="translate(485.4375,474.6875)"/>
<path d="M0 0 C0.33 0 0.66 0 1 0 C1.0154612 0.91748268 1.0154612 0.91748268 1.03123474 1.85350037 C1.13906745 8.19582316 1.25368342 14.53799714 1.37231445 20.88012695 C1.4157381 23.24988708 1.45740749 25.61968 1.49731445 27.98950195 C1.55483768 31.38763333 1.61858303 34.78559843 1.68359375 38.18359375 C1.70030624 39.25024765 1.71701874 40.31690155 1.73423767 41.4158783 C1.75418289 42.39681961 1.77412811 43.37776093 1.79467773 44.38842773 C1.81022202 45.25668686 1.8257663 46.12494598 1.84178162 47.01951599 C1.78462425 49.00080779 1.78462425 49.00080779 3 50 C4.91451817 50.09983684 6.83288619 50.12967589 8.75 50.125 C9.79671875 50.12757813 10.8434375 50.13015625 11.921875 50.1328125 C15.34552026 50.06407128 15.34552026 50.06407128 20 49 C20.33 36.79 20.66 24.58 21 12 C21.33 12 21.66 12 22 12 C22.02464775 17.53588533 22.04283496 23.071739 22.05493164 28.60766602 C22.05997244 30.4924373 22.06680498 32.37720465 22.07543945 34.26196289 C22.08751617 36.96501636 22.09323068 39.66801831 22.09765625 42.37109375 C22.10281754 43.21900986 22.10797882 44.06692596 22.11329651 44.9405365 C22.11349195 46.96071068 22.06206211 48.98077934 22 51 C20.41062444 52.58937556 18.76100154 52.12981143 16.5625 52.1328125 C15.22058594 52.13474609 15.22058594 52.13474609 13.8515625 52.13671875 C12.91054687 52.13285156 11.96953125 52.12898437 11 52.125 C9.58847656 52.13080078 9.58847656 52.13080078 8.1484375 52.13671875 C7.25382812 52.13542969 6.35921875 52.13414062 5.4375 52.1328125 C4.61121094 52.13168457 3.78492188 52.13055664 2.93359375 52.12939453 C1 52 1 52 0 51 C-0.09333705 49.40389018 -0.11745372 47.80366572 -0.11352539 46.20483398 C-0.11344986 45.18385117 -0.11337433 44.16286835 -0.11329651 43.11094666 C-0.10813522 42.0005452 -0.10297394 40.89014374 -0.09765625 39.74609375 C-0.0962413 38.61551041 -0.09482635 37.48492706 -0.09336853 36.32008362 C-0.08775019 32.69252935 -0.07519458 29.06503576 -0.0625 25.4375 C-0.05748736 22.98502693 -0.05292405 20.5325529 -0.04882812 18.08007812 C-0.0377748 12.05336455 -0.02101884 6.02668661 0 0 Z " fill="#1A6D9E" transform="translate(1313,539)"/>
<path d="M0 0 C23.76 0 47.52 0 72 0 C72 0.33 72 0.66 72 1 C71.15253204 1.00586624 70.30506409 1.01173248 69.43191528 1.01777649 C61.45620024 1.07561317 53.48076794 1.1476373 45.50532722 1.23571491 C41.40477578 1.28049617 37.30432548 1.31973475 33.20361328 1.34643555 C29.24824358 1.37239178 25.29326148 1.41273846 21.33813095 1.46318626 C19.82706386 1.47990727 18.31592965 1.49138887 16.80478287 1.49761391 C14.69251856 1.50719882 12.58125761 1.53518712 10.46923828 1.56762695 C8.66388107 1.58428154 8.66388107 1.58428154 6.822052 1.60127258 C5.42513626 1.79864265 5.42513626 1.79864265 4 2 C1.67376352 5.48935471 1.74927506 6.90482598 2 11 C2.43941523 13.26566343 2.43941523 13.26566343 3 15 C2.34 15 1.68 15 1 15 C0 12 0 12 0 0 Z " fill="#50BCDA" transform="translate(456,533)"/>
<path d="M0 0 C2.38671875 1.64453125 2.38671875 1.64453125 4.6875 3.8125 C5.45449219 4.52019531 6.22148438 5.22789062 7.01171875 5.95703125 C9 8 9 8 11 11 C10.78804507 13.6261733 10.22452039 14.75465942 8.44140625 16.703125 C7.82136719 17.21359375 7.20132812 17.7240625 6.5625 18.25 C5.63630859 19.03117188 5.63630859 19.03117188 4.69140625 19.828125 C3 21 3 21 1 21 C0.67 20.01 0.34 19.02 0 18 C0.66 17.34 1.32 16.68 2 16 C2 16.66 2 17.32 2 18 C3.98 16.68 5.96 15.36 8 14 C7.24313957 9.62379417 5.11881942 7.36053295 1.953125 4.375 C-0.06551811 2.71151255 -0.06551811 2.71151255 -3.375 2.6875 C-7.41367546 4.14977904 -10.39730875 6.12067909 -13.7890625 8.72265625 C-16.3947592 10.2280676 -18.03912788 10.24414209 -21 10 C-17.86363313 7.4667806 -14.59715145 5.79857573 -11 4 C-9.4840625 2.9171875 -9.4840625 2.9171875 -7.9375 1.8125 C-4.72365667 -0.17050972 -3.66541662 -0.49384356 0 0 Z " fill="#2584B0" transform="translate(1170,564)"/>
<path d="M0 0 C1.11826172 0.00966797 2.23652344 0.01933594 3.38867188 0.02929688 C5.13954102 0.06700195 5.13954102 0.06700195 6.92578125 0.10546875 C8.10462891 0.11900391 9.28347656 0.13253906 10.49804688 0.14648438 C13.41191536 0.18187549 16.3248707 0.23125066 19.23828125 0.29296875 C19.73328125 2.27296875 19.73328125 2.27296875 20.23828125 4.29296875 C18.25828125 5.94296875 16.27828125 7.59296875 14.23828125 9.29296875 C15.57161458 6.62630208 16.90494792 3.95963542 18.23828125 1.29296875 C4.28735052 0.06362812 4.28735052 0.06362812 -8.3046875 4.52734375 C-10.79619644 7.32401425 -12.80471658 10.10330937 -14.76171875 13.29296875 C-15.89413092 14.84452049 -17.03828213 16.3876432 -18.19921875 17.91796875 C-18.63105469 18.54960938 -19.06289062 19.18125 -19.5078125 19.83203125 C-20.76171875 21.29296875 -20.76171875 21.29296875 -23.76171875 22.29296875 C-22.42871728 19.39224598 -20.92827144 17.12565048 -18.828125 14.7265625 C-17.97831055 13.75106445 -17.97831055 13.75106445 -17.11132812 12.75585938 C-16.52158203 12.08748047 -15.93183594 11.41910156 -15.32421875 10.73046875 C-14.73833984 10.05822266 -14.15246094 9.38597656 -13.54882812 8.69335938 C-11.96429419 6.88220651 -10.37960247 5.07440256 -8.76171875 3.29296875 C-8.32230957 2.73319336 -7.88290039 2.17341797 -7.43017578 1.59667969 C-4.97615699 -0.32085914 -3.07781062 -0.04687021 0 0 Z " fill="#1D7EA9" transform="translate(1375.76171875,493.70703125)"/>
<path d="M0 0 C11.1314026 3.82270587 18.05464883 14.08111657 23.09375 24.1953125 C25.10813986 28.95151077 25.27077132 32.94560206 25 38 C23.10559483 35.15839225 22.74124126 34.18137197 22.25 31 C19.98437917 19.99555596 12.86592704 10.63000245 4 4 C2.68280891 3.30198148 1.35289745 2.62601176 0 2 C0 1.34 0 0.68 0 0 Z " fill="#248FB4" transform="translate(1163,498)"/>
<path d="M0 0 C3.99621528 0.62476042 6.24878052 2.93561952 9.0859375 5.62109375 C9.91061523 6.34522461 9.91061523 6.34522461 10.75195312 7.08398438 C13.2904404 9.43326763 14.69490903 10.80105126 15.12890625 14.296875 C15.01160156 15.00199219 14.89429688 15.70710937 14.7734375 16.43359375 C14.1134375 16.76359375 13.4534375 17.09359375 12.7734375 17.43359375 C12.7734375 16.58796875 12.7734375 15.74234375 12.7734375 14.87109375 C11.30099093 9.80955865 8.0313597 7.37303366 3.7734375 4.43359375 C0.49361317 2.97226489 0.49361317 2.97226489 -2.2265625 2.43359375 C-2.2471875 3.01109375 -2.2678125 3.58859375 -2.2890625 4.18359375 C-3.82211789 7.8629267 -6.71054493 8.70642722 -10.2265625 10.43359375 C-10.8865625 10.43359375 -11.5465625 10.43359375 -12.2265625 10.43359375 C-12.2265625 9.77359375 -12.2265625 9.11359375 -12.2265625 8.43359375 C-10.24055913 7.07950055 -8.23838707 5.74901751 -6.2265625 4.43359375 C-5.5459375 3.69109375 -4.8653125 2.94859375 -4.1640625 2.18359375 C-2.2265625 0.43359375 -2.2265625 0.43359375 0 0 Z " fill="#2893B5" transform="translate(954.2265625,560.56640625)"/>
<path d="M0 0 C3.98874822 0.55017217 5.98075809 2.48687866 8.8125 5.25 C9.62332031 6.01828125 10.43414063 6.7865625 11.26953125 7.578125 C13 10 13 10 13.0546875 12.5078125 C11.69347208 15.72431412 9.94268987 17.33685276 7.3125 19.625 C6.46300781 20.38039063 5.61351562 21.13578125 4.73828125 21.9140625 C1.91295477 24.06630835 -0.71089839 25.65916241 -4 27 C-4.99 26.67 -5.98 26.34 -7 26 C-6.19175781 25.55269531 -5.38351562 25.10539063 -4.55078125 24.64453125 C3.58461483 20.35047827 3.58461483 20.35047827 10 14 C10.17778312 11.30371421 10.17778312 11.30371421 9 9 C8.01 8.34 7.02 7.68 6 7 C6 6.34 6 5.68 6 5 C5.38125 4.731875 4.7625 4.46375 4.125 4.1875 C2 3 2 3 0 0 Z " fill="#1B6FA2" transform="translate(1282,562)"/>
<path d="M0 0 C0.66 0.33 1.32 0.66 2 1 C1.484375 1.4125 0.96875 1.825 0.4375 2.25 C-1.20472875 3.84872028 -1.20472875 3.84872028 -0.91015625 5.75 C0.41052547 9.01486126 2.71884779 11.25136454 5.125 13.75 C6.12555806 14.81588267 7.12555734 15.88229014 8.125 16.94921875 C8.61484375 17.46790527 9.1046875 17.9865918 9.609375 18.52099609 C11.47810844 20.50849384 13.31072741 22.52522308 15.125 24.5625 C15.66382813 25.16191406 16.20265625 25.76132812 16.7578125 26.37890625 C18 28 18 28 19 31 C15.86891377 29.63481924 14.00616983 28.16782145 11.8125 25.5625 C11.21695312 24.86125 10.62140625 24.16 10.0078125 23.4375 C6.9482177 19.72312811 3.9222508 15.98188697 0.91796875 12.22265625 C-0.80583327 9.93666852 -0.80583327 9.93666852 -3 9 C-3.36923077 3.46153846 -3.36923077 3.46153846 -1.5 1.125 C-1.005 0.75375 -0.51 0.3825 0 0 Z " fill="#2378AA" transform="translate(1359,535)"/>
<path d="M0 0 C1.9801217 1.9801217 2.68572203 3.30481966 3.8125 5.8125 C7.18754588 12.69958624 12.68200619 17.04662185 19.625 20.1875 C24.69280636 21.40752746 29.80704302 21.68069197 35 22 C35 22.33 35 22.66 35 23 C26.99054432 23.30372936 20.30934715 23.50848663 13 20 C13 19.34 13 18.68 13 18 C12.29875 17.835 11.5975 17.67 10.875 17.5 C5.73820065 14.81993077 2.19854575 9.31402054 0 4 C0 2.68 0 1.36 0 0 Z " fill="#1672A4" transform="translate(1226,551)"/>
<path d="M0 0 C11.0850653 0.03869133 19.23853366 3.02180434 27.1875 10.875 C28.1387022 11.9041696 29.08204852 12.94106621 30 14 C29.67 14.66 29.34 15.32 29 16 C27.8274869 15.04882866 26.66212985 14.08882991 25.5 13.125 C24.52546875 12.32449219 24.52546875 12.32449219 23.53125 11.5078125 C23.0259375 11.01023437 22.520625 10.51265625 22 10 C22 9.34 22 8.68 22 8 C17.12291279 5.95800461 12.12338962 4.49894537 7.05859375 3 C4.53414949 2.17463891 2.32134533 1.27134805 0 0 Z " fill="#28A0BB" transform="translate(1035,492)"/>
<path d="M0 0 C1.09828769 3.54188278 1.11445011 6.8209762 1.09765625 10.515625 C1.09443359 11.76601563 1.09121094 13.01640625 1.08789062 14.3046875 C1.07951172 15.60664062 1.07113281 16.90859375 1.0625 18.25 C1.05798828 19.56742188 1.05347656 20.88484375 1.04882812 22.2421875 C1.03704316 25.49483741 1.02059011 28.74739584 1 32 C-3.68085663 24.97871506 -2.7979593 14.16938854 -1.55078125 6.08984375 C-1.09396913 4.0455285 -0.55704998 2.01930619 0 0 Z " fill="#4EA0C0" transform="translate(1204,528)"/>
<path d="M0 0 C5.93333307 0.40919538 9.38048494 1.18890008 14 5 C14 5.66 14 6.32 14 7 C14.99 7.33 15.98 7.66 17 8 C19.94265013 12.25162208 21.48686537 16.86865375 22 22 C21.34 22 20.68 22 20 22 C19.70609375 20.93072266 19.70609375 20.93072266 19.40625 19.83984375 C17.14617453 12.60175723 14.47644171 8.08854504 8 4 C5.34048399 2.73808679 2.82933059 1.85890393 0 1 C0 0.67 0 0.34 0 0 Z " fill="#1D94B4" transform="translate(1031,512)"/>
<path d="M0 0 C0.99 0.66 1.98 1.32 3 2 C2.55269531 2.37769531 2.10539062 2.75539063 1.64453125 3.14453125 C-3.73499378 8.04230777 -6.36228257 13.27807494 -9 20 C-9.97509909 17.41539999 -10.15692639 16.36233411 -9.0390625 13.78125 C-8.57242187 13.0284375 -8.10578125 12.275625 -7.625 11.5 C-5.66997517 8.32358302 -5.66997517 8.32358302 -4.46484375 4.828125 C-3.79597002 2.19759637 -2.21231774 1.42730177 0 0 Z " fill="#1188B1" transform="translate(1236,517)"/>
<path d="M0 0 C0.80566406 0.00322266 1.61132812 0.00644531 2.44140625 0.00976562 C3.70404297 0.02233398 3.70404297 0.02233398 4.9921875 0.03515625 C5.84167969 0.03966797 6.69117188 0.04417969 7.56640625 0.04882812 C9.66669659 0.06062751 11.7669508 0.07856319 13.8671875 0.09765625 C13.8671875 0.42765625 13.8671875 0.75765625 13.8671875 1.09765625 C8.2571875 1.75765625 2.6471875 2.41765625 -3.1328125 3.09765625 C-3.7928125 4.74765625 -4.4528125 6.39765625 -5.1328125 8.09765625 C-6.1953125 6.28515625 -6.1953125 6.28515625 -7.1328125 4.09765625 C-6.8028125 3.10765625 -6.4728125 2.11765625 -6.1328125 1.09765625 C-3.8362755 -0.05061225 -2.54968083 -0.0179555 0 0 Z " fill="#1AD6DA" transform="translate(671.1328125,493.90234375)"/>
<path d="M0 0 C0 0.33 0 0.66 0 1 C-3.74760669 1.70100082 -7.49836085 2.38343987 -11.25 3.0625 C-12.31347656 3.26166016 -13.37695312 3.46082031 -14.47265625 3.66601562 C-16.00986328 3.94155273 -16.00986328 3.94155273 -17.578125 4.22265625 C-18.52075195 4.39547119 -19.46337891 4.56828613 -20.43457031 4.74633789 C-22.95177234 4.99523139 -24.61780887 4.78671127 -27 4 C-17.82899626 1.19357263 -9.70186168 -0.65040413 0 0 Z " fill="#50ADC7" transform="translate(1261,491)"/>
<path d="M0 0 C0.66 0.33 1.32 0.66 2 1 C0.39441516 2.92536938 -0.47769478 3.91074167 -2.99291992 4.34057617 C-3.73131104 4.32486572 -4.46970215 4.30915527 -5.23046875 4.29296875 C-6.03291016 4.28330078 -6.83535156 4.27363281 -7.66210938 4.26367188 C-8.49548828 4.23853516 -9.32886719 4.21339844 -10.1875 4.1875 C-11.03248047 4.17396484 -11.87746094 4.16042969 -12.74804688 4.14648438 C-14.83230384 4.11115799 -16.91623277 4.05735139 -19 4 C-19.33 3.34 -19.66 2.68 -20 2 C-18.72382812 1.93941406 -17.44765625 1.87882813 -16.1328125 1.81640625 C-14.46352984 1.73200432 -12.79425963 1.64735614 -11.125 1.5625 C-10.28324219 1.52318359 -9.44148437 1.48386719 -8.57421875 1.44335938 C-7.76855469 1.40146484 -6.96289062 1.35957031 -6.1328125 1.31640625 C-5.01737061 1.26141968 -5.01737061 1.26141968 -3.87939453 1.20532227 C-1.91135688 1.10044135 -1.91135688 1.10044135 0 0 Z " fill="#3F92B5" transform="translate(1004,588)"/>
<path d="M0 0 C0.99 0.99 1.98 1.98 3 3 C2.67 3.33 2.34 3.66 2 4 C1.84019563 6.44608998 1.74070553 8.86731058 1.68359375 11.31640625 C1.66281265 12.04746078 1.64203156 12.77851532 1.62062073 13.53172302 C1.55504976 15.87521656 1.49620568 18.21882539 1.4375 20.5625 C1.39432192 22.14779855 1.35070787 23.73308529 1.30664062 25.31835938 C1.1993608 29.21212037 1.0981151 33.10599772 1 37 C0.67 37 0.34 37 0 37 C0 24.79 0 12.58 0 0 Z " fill="#E6F2F7" transform="translate(1336,551)"/>
<path d="M0 0 C0.66 0.33 1.32 0.66 2 1 C1.113125 1.721875 0.22625 2.44375 -0.6875 3.1875 C-3.62643151 5.65173473 -6.4373693 8.13588334 -9 11 C-9 11.99 -9 12.98 -9 14 C-11 12.625 -11 12.625 -13 11 C-13 10.34 -13 9.68 -13 9 C-10.86229382 7.37322909 -8.7324466 5.86020356 -6.5 4.375 C-5.87996094 3.95476563 -5.25992187 3.53453125 -4.62109375 3.1015625 C-3.08482736 2.06162833 -1.54292476 1.03002944 0 0 Z " fill="#27C2E1" transform="translate(493,583)"/>
<path d="M0 0 C3.71852892 1.23950964 3.99395847 2.70924656 5.76171875 6.01953125 C8.58290248 10.5316453 12.60582796 14.07055197 17 17 C16.67 17.66 16.34 18.32 16 19 C3.96963621 8.72901747 3.96963621 8.72901747 0 2 C0 1.34 0 0.68 0 0 Z " fill="#2077A6" transform="translate(1208,567)"/>
<path d="M0 0 C0.33 0.66 0.66 1.32 1 2 C0.67 2.99 0.34 3.98 0 5 C-0.66 5 -1.32 5 -2 5 C-2.04125 6.0725 -2.0825 7.145 -2.125 8.25 C-3 12 -3 12 -6.0625 14.4375 C-7.031875 14.953125 -8.00125 15.46875 -9 16 C-7.51637716 9.73581469 -3.75837844 5.08486495 0 0 Z " fill="#26C6E3" transform="translate(447,429)"/>
<path d="M0 0 C5.46477024 0.34154814 8.9488811 3.65782691 13 7 C13.845625 7.680625 14.69125 8.36125 15.5625 9.0625 C17 11 17 11 16.75 13.75 C16.5025 14.4925 16.255 15.235 16 16 C15.67 16 15.34 16 15 16 C14.7525 15.071875 14.505 14.14375 14.25 13.1875 C12.91303807 9.77824707 11.94881621 8.96587748 9 7 C9 6.34 9 5.68 9 5 C8.2575 4.731875 7.515 4.46375 6.75 4.1875 C4.13363446 3.05770579 2.19812889 1.79106798 0 0 Z " fill="#2281AB" transform="translate(1277,497)"/>
<path d="M0 0 C0.99 0.33 1.98 0.66 3 1 C1.68 1.33 0.36 1.66 -1 2 C-1 2.66 -1 3.32 -1 4 C-1.66 4 -2.32 4 -3 4 C-3.20625 4.5775 -3.4125 5.155 -3.625 5.75 C-5.49750888 8.81410544 -7.96958519 10.15539968 -11 12 C-11.66 11.67 -12.32 11.34 -13 11 C-8.98374384 6.76986038 -5.15157927 2.80995233 0 0 Z " fill="#2A9DBE" transform="translate(1113,498)"/>
<path d="M0 0 C0.66 0.33 1.32 0.66 2 1 C0.43900511 7.93775507 -4.1815723 13.1210482 -10 17 C-10.66 16.34 -11.32 15.68 -12 15 C-11.46890625 14.67128906 -10.9378125 14.34257813 -10.390625 14.00390625 C-4.68107729 10.15933854 -2.19231095 6.49039427 0 0 Z " fill="#19B3C7" transform="translate(728,556)"/>
<path d="M0 0 C0.33 0 0.66 0 1 0 C0.65025665 7.22802931 -1.00678737 12.89477028 -5 19 C-5.99 19.66 -6.98 20.32 -8 21 C-7.36435819 17.828933 -6.23356964 15.50701698 -4.5625 12.75 C-2.14473336 8.53637778 -0.95009514 4.75047572 0 0 Z " fill="#19AFC4" transform="translate(749,560)"/>
<path d="M0 0 C0.66 0.33 1.32 0.66 2 1 C-2.62 5.95 -7.24 10.9 -12 16 C-12 12.53867696 -11.64823482 12.25491372 -9.375 9.86328125 C-8.83359375 9.28642578 -8.2921875 8.70957031 -7.734375 8.11523438 C-7.16203125 7.52033203 -6.5896875 6.92542969 -6 6.3125 C-5.42765625 5.70599609 -4.8553125 5.09949219 -4.265625 4.47460938 C-2.8503661 2.97679371 -1.42602723 1.4875671 0 0 Z " fill="#0E6FA2" transform="translate(1350,517)"/>
<path d="M0 0 C4.875 3.625 4.875 3.625 6 7 C5.01 7.495 5.01 7.495 4 8 C3.53248212 10.35599235 3.53248212 10.35599235 3.375 13.0625 C3.30023437 13.98160156 3.22546875 14.90070313 3.1484375 15.84765625 C3.09945312 16.55792969 3.05046875 17.26820313 3 18 C2.67 18 2.34 18 2 18 C1.93941406 17.11957031 1.87882813 16.23914063 1.81640625 15.33203125 C1.73261719 14.17058594 1.64882813 13.00914062 1.5625 11.8125 C1.48128906 10.66394531 1.40007813 9.51539063 1.31640625 8.33203125 C1.04596188 5.48401829 0.62478253 2.78789518 0 0 Z " fill="#35C5E1" transform="translate(602,446)"/>
<path d="M0 0 C0.99 0.66 1.98 1.32 3 2 C2.43867066 5.5371438 1.30442253 6.99261679 -1.4375 9.25 C-2.05496094 9.77078125 -2.67242188 10.2915625 -3.30859375 10.828125 C-5 12 -5 12 -7 12 C-7.33 11.01 -7.66 10.02 -8 9 C-7.34 8.34 -6.68 7.68 -6 7 C-6 7.66 -6 8.32 -6 9 C-2.90412546 7.35322796 -2.90412546 7.35322796 0 5 C0.50241322 2.3295947 0.50241322 2.3295947 0 0 Z " fill="#1477A8" transform="translate(1178,573)"/>
<path d="M0 0 C0.66 0.33 1.32 0.66 2 1 C1.16855469 1.77923828 1.16855469 1.77923828 0.3203125 2.57421875 C-0.76636719 3.62029297 -0.76636719 3.62029297 -1.875 4.6875 C-2.59429688 5.37199219 -3.31359375 6.05648438 -4.0546875 6.76171875 C-6.08335887 9.09591291 -7.02992733 11.08467634 -8 14 C-8.99 14 -9.98 14 -11 14 C-9.61085525 9.70281047 -7.61968015 7.29312243 -4.375 4.1875 C-3.55773437 3.39730469 -2.74046875 2.60710937 -1.8984375 1.79296875 C-0.95871094 0.90544922 -0.95871094 0.90544922 0 0 Z " fill="#17BACA" transform="translate(782,501)"/>
<path d="M0 0 C0.66 0.33 1.32 0.66 2 1 C0.9015258 2.46262592 -0.2040036 3.91995503 -1.3125 5.375 C-1.92738281 6.18710937 -2.54226563 6.99921875 -3.17578125 7.8359375 C-5 10 -5 10 -8 12 C-7.67 10.68 -7.34 9.36 -7 8 C-6.34 8 -5.68 8 -5 8 C-4.731875 7.05125 -4.46375 6.1025 -4.1875 5.125 C-3 2 -3 2 0 0 Z " fill="#2B9EBC" transform="translate(855,571)"/>
<path d="M0 0 C0.33 1.32 0.66 2.64 1 4 C0.34 4 -0.32 4 -1 4 C-1.0825 4.70125 -1.165 5.4025 -1.25 6.125 C-2.17027725 9.65272947 -3.88126977 12.06111614 -6 15 C-6.33 14.34 -6.66 13.68 -7 13 C-6.07421875 10.72265625 -6.07421875 10.72265625 -4.6875 8.0625 C-4.23761719 7.18722656 -3.78773437 6.31195312 -3.32421875 5.41015625 C-2 3 -2 3 0 0 Z " fill="#3C9BBE" transform="translate(1212,512)"/>
<path d="M0 0 C0.66 0.33 1.32 0.66 2 1 C0.56354149 2.60509934 -0.87420706 4.20904424 -2.3125 5.8125 C-3.11300781 6.70582031 -3.91351562 7.59914063 -4.73828125 8.51953125 C-6.45224581 10.39926786 -8.17877604 12.22592747 -10 14 C-10 9.84439769 -7.7179548 8.15900671 -5 5.3125 C-4.52304688 4.80138672 -4.04609375 4.29027344 -3.5546875 3.76367188 C-2.37640085 2.50290516 -1.18904747 1.25062314 0 0 Z " fill="#1A7DAB" transform="translate(1363,502)"/>
<path d="M0 0 C3.057952 1.73559438 5.63379989 3.38472619 8 6 C6.63016497 9.16115776 6.0109362 9.9927092 3 12 C3.33 9.69 3.66 7.38 4 5 C3.01 4.319375 3.01 4.319375 2 3.625 C1.34 3.08875 0.68 2.5525 0 2 C0 1.34 0 0.68 0 0 Z " fill="#26A5BB" transform="translate(961,503)"/>
<path d="M0 0 C0.66 0.66 1.32 1.32 2 2 C1 3 1 3 -0.76586914 3.11352539 C-1.51473389 3.10828857 -2.26359863 3.10305176 -3.03515625 3.09765625 C-3.84404297 3.09443359 -4.65292969 3.09121094 -5.48632812 3.08789062 C-6.33646484 3.07951172 -7.18660156 3.07113281 -8.0625 3.0625 C-8.91650391 3.05798828 -9.77050781 3.05347656 -10.65039062 3.04882812 C-12.76695663 3.03700373 -14.88348685 3.01906769 -17 3 C-17 2.67 -17 2.34 -17 2 C-14.20959495 1.61161386 -11.41862114 1.23879954 -8.625 0.875 C-7.8309375 0.76285156 -7.036875 0.65070312 -6.21875 0.53515625 C-4.15478115 0.27278733 -2.07660649 0.12849262 0 0 Z " fill="#1D6A9D" transform="translate(1333,588)"/>
<path d="M0 0 C-1.6875 2.0625 -1.6875 2.0625 -4 4 C-6.6875 3.875 -6.6875 3.875 -9 3 C-9.33 2.34 -9.66 1.68 -10 1 C-6.52674819 -0.1577506 -3.63932552 -0.06866652 0 0 Z " fill="#0C86B8" transform="translate(1270,571)"/>
<path d="M0 0 C1.32 0.33 2.64 0.66 4 1 C3.01 2.485 3.01 2.485 2 4 C1.77415313 7.5382677 1.95663716 10.60907078 3 14 C2.34 14 1.68 14 1 14 C-0.04976964 10.85069107 -0.10131595 8.61185544 -0.0625 5.3125 C-0.05347656 4.31863281 -0.04445313 3.32476563 -0.03515625 2.30078125 C-0.02355469 1.54152344 -0.01195312 0.78226563 0 0 Z " fill="#31CDE5" transform="translate(456,534)"/>
<path d="M0 0 C0.66 0.33 1.32 0.66 2 1 C-0.64 3.97 -3.28 6.94 -6 10 C-6.33 9.34 -6.66 8.68 -7 8 C-3.375 2.25 -3.375 2.25 0 0 Z " fill="#3DD2E9" transform="translate(464,454)"/>
<path d="M0 0 C0.66 0.33 1.32 0.66 2 1 C0.8803014 2.00593243 -0.2459412 3.0045849 -1.375 4 C-2.00148438 4.556875 -2.62796875 5.11375 -3.2734375 5.6875 C-5 7 -5 7 -7 7 C-7 7.66 -7 8.32 -7 9 C-7.99 8.67 -8.98 8.34 -10 8 C-8.71064081 6.85157077 -7.41843421 5.70633773 -6.125 4.5625 C-5.04605469 3.60537109 -5.04605469 3.60537109 -3.9453125 2.62890625 C-2 1 -2 1 0 0 Z " fill="#29C7E4" transform="translate(458,420)"/>
<path d="M0 0 C-8.261959 5.74031891 -8.261959 5.74031891 -13 5 C-4.82022472 -1.60674157 -4.82022472 -1.60674157 0 0 Z " fill="#197FAE" transform="translate(1162,569)"/>
<path d="M0 0 C0.99 0.33 1.98 0.66 3 1 C1.80702902 3.38594197 0.85642735 3.83734847 -1.4375 5.125 C-2.05496094 5.47820313 -2.67242188 5.83140625 -3.30859375 6.1953125 C-5 7 -5 7 -7 7 C-7 6.34 -7 5.68 -7 5 C-5.03277992 3.61876037 -3.03131672 2.28511874 -1 1 C-0.67 0.67 -0.34 0.34 0 0 Z " fill="#1793B8" transform="translate(949,564)"/>
<path d="M0 0 C2.93200474 2.85276137 5.64315404 5.65079784 8 9 C6.68 8.67 5.36 8.34 4 8 C4 7.34 4 6.68 4 6 C2.68 5.34 1.36 4.68 0 4 C0 2.68 0 1.36 0 0 Z " fill="#34AEC5" transform="translate(790,560)"/>
<path d="M0 0 C0.66 0.33 1.32 0.66 2 1 C-0.64 3.97 -3.28 6.94 -6 10 C-6.33 9.01 -6.66 8.02 -7 7 C-4.69 4.69 -2.38 2.38 0 0 Z " fill="#237EAD" transform="translate(1369,524)"/>
<path d="M0 0 C3.5786304 1.65167557 6.74820188 3.78286492 10 6 C9.01 6.495 9.01 6.495 8 7 C6.0546875 6.07421875 6.0546875 6.07421875 3.875 4.6875 C2.78832031 4.01267578 2.78832031 4.01267578 1.6796875 3.32421875 C1.12539063 2.88722656 0.57109375 2.45023438 0 2 C0 1.34 0 0.68 0 0 Z " fill="#249BB7" transform="translate(787,583)"/>
<path d="M0 0 C0.66 0.33 1.32 0.66 2 1 C0.02 3.31 -1.96 5.62 -4 8 C-4.99 7.67 -5.98 7.34 -7 7 C-4.69 4.69 -2.38 2.38 0 0 Z " fill="#318DB6" transform="translate(1370,494)"/>
<path d="M0 0 C4.28359673 1.8855148 6.15103592 4.35965701 9 8 C8.01 8 7.02 8 6 8 C4.39453125 6.25 4.39453125 6.25 2.8125 4 C2.28269531 3.2575 1.75289062 2.515 1.20703125 1.75 C0.80871094 1.1725 0.41039062 0.595 0 0 Z " fill="#1770A4" transform="translate(1377,566)"/>
<path d="M0 0 C3.53600465 1.91135386 5.78972846 3.62642766 8 7 C5 7 5 7 2.3125 4.625 C0 2 0 2 0 0 Z " fill="#31BBCA" transform="translate(845,502)"/>
</svg>
